<?xml version="1.0" encoding="UTF-8"?>
<!DOCTYPE svg PUBLIC "-//W3C//DTD SVG 1.1//EN" "http://www.w3.org/Graphics/SVG/1.1/DTD/svg11.dtd">
<svg xmlns="http://www.w3.org/2000/svg" version="1.1" width="32px" height="32px" style="shape-rendering:geometricPrecision; text-rendering:geometricPrecision; image-rendering:optimizeQuality; fill-rule:evenodd; clip-rule:evenodd" xmlns:xlink="http://www.w3.org/1999/xlink">
<g><path style="opacity:0.632" fill="#000000" d="M 11.5,2.5 C 18.0788,1.03797 22.5788,3.37131 25,9.5C 30.1598,11.8958 31.8265,15.8958 30,21.5C 28.2141,24.3616 25.8808,25.0283 23,23.5C 22.5065,25.1341 22.3398,26.8008 22.5,28.5C 17.8333,28.5 13.1667,28.5 8.5,28.5C 8.66018,26.8008 8.49351,25.1341 8,23.5C 3.11992,24.8063 0.619919,22.8063 0.5,17.5C 0.0471455,13.5694 1.71381,11.0694 5.5,10C 6.69035,6.75045 8.69035,4.25045 11.5,2.5 Z M 12.5,5.5 C 18.1445,4.48093 21.1445,6.81426 21.5,12.5C 26.547,12.3756 28.3803,14.7089 27,19.5C 25.8455,20.7433 24.5122,21.7433 23,22.5C 18,9.16667 13,9.16667 8,22.5C 3.99946,21.1521 2.66612,18.4854 4,14.5C 5.5843,13.1387 7.41764,12.472 9.5,12.5C 9.6878,9.79385 10.6878,7.46052 12.5,5.5 Z M 13.5,16.5 C 15.1033,16.3118 16.4366,16.8118 17.5,18C 15.5372,18.8442 14.2039,18.3442 13.5,16.5 Z M 11.5,21.5 C 14.1667,21.5 16.8333,21.5 19.5,21.5C 19.5,22.8333 19.5,24.1667 19.5,25.5C 16.8333,25.5 14.1667,25.5 11.5,25.5C 11.5,24.1667 11.5,22.8333 11.5,21.5 Z"/></g>
</svg>
