<?xml version="1.0" encoding="UTF-8"?>
<!DOCTYPE svg PUBLIC "-//W3C//DTD SVG 1.1//EN" "http://www.w3.org/Graphics/SVG/1.1/DTD/svg11.dtd">
<svg xmlns="http://www.w3.org/2000/svg" version="1.1" width="225px" height="225px" style="shape-rendering:geometricPrecision; text-rendering:geometricPrecision; image-rendering:optimizeQuality; fill-rule:evenodd; clip-rule:evenodd" xmlns:xlink="http://www.w3.org/1999/xlink">
<g><path style="opacity:0.149" fill="#9daabd" d="M 108.5,61.5 C 106.446,60.3914 104.279,59.3914 102,58.5C 100.019,58.8985 98.5188,59.8985 97.5,61.5C 96.5,62.1667 95.5,62.8333 94.5,63.5C 97.1799,56.8149 101.513,55.3149 107.5,59C 108.252,59.6708 108.586,60.5041 108.5,61.5 Z"/></g>
<g><path style="opacity:0.986" fill="#eff0f3" d="M 29.5,62.5 C 28.448,62.6495 27.448,62.4828 26.5,62C 27.8331,60.1598 27.6665,59.6598 26,60.5C 24.2745,58.7721 22.9411,56.7721 22,54.5C 20.6283,55.9101 19.795,57.5767 19.5,59.5C 17.3665,68.3092 18.5331,76.6426 23,84.5C 27.735,89.4362 32.9017,93.7696 38.5,97.5C 38.6107,98.1174 38.944,98.6174 39.5,99C 35.5783,102.251 32.4117,106.084 30,110.5C 26.9393,116.058 24.106,121.725 21.5,127.5C 16.3388,135.95 15.3388,144.95 18.5,154.5C 18.5,155.5 18.5,156.5 18.5,157.5C 17.8141,156.152 16.8141,154.985 15.5,154C 15.8333,153.667 16.1667,153.333 16.5,153C 15.6896,147.249 15.1896,141.416 15,135.5C 14.3333,138.167 13.6667,138.167 13,135.5C 12.5038,137.035 12.6705,138.535 13.5,140C 12.095,140.207 11.095,141.373 10.5,143.5C 10.7926,135.788 12.6259,128.454 16,121.5C 19.6082,115.266 23.4415,109.266 27.5,103.5C 29.4161,102.335 30.2494,100.668 30,98.5C 25.0207,95.6832 20.8541,92.0165 17.5,87.5C 11.873,78.9534 10.373,69.6201 13,59.5C 15.3529,54.5736 19.1862,52.7402 24.5,54C 27.0723,56.3128 28.739,59.1461 29.5,62.5 Z"/></g>
<g><path style="opacity:0.149" fill="#9f9cb6" d="M 147.5,77.5 C 147.167,78.1667 146.833,78.8333 146.5,79.5C 145.33,81.2785 143.664,82.2785 141.5,82.5C 139.421,80.127 136.754,78.7936 133.5,78.5C 135.19,72.6394 134.69,66.9727 132,61.5C 127.501,58.5984 123.335,58.9317 119.5,62.5C 119.916,60.2475 121.249,58.7475 123.5,58C 129.347,56.6719 133.18,58.8386 135,64.5C 135.333,68.5 135.667,72.5 136,76.5C 137.916,78.2095 140.082,79.5428 142.5,80.5C 143.94,79.0476 145.606,78.0476 147.5,77.5 Z"/></g>
<g><path style="opacity:0.969" fill="#f5f7f7" d="M 108.5,61.5 C 111.259,73.0544 114.926,73.3878 119.5,62.5C 123.335,58.9317 127.501,58.5984 132,61.5C 134.69,66.9727 135.19,72.6394 133.5,78.5C 136.754,78.7936 139.421,80.127 141.5,82.5C 140.85,82.8039 140.183,83.1373 139.5,83.5C 136.5,82.3333 133.5,81.1667 130.5,80C 130.923,77.1831 131.256,74.3498 131.5,71.5C 130.696,68.9672 129.363,66.9672 127.5,65.5C 127.103,64.475 126.437,64.3083 125.5,65C 122.989,69.669 119.656,73.5023 115.5,76.5C 114.262,77.4124 112.928,77.5791 111.5,77C 108.882,74.8943 106.882,72.3943 105.5,69.5C 105.804,68.8501 106.137,68.1835 106.5,67.5C 105.05,66.1502 104.383,64.4835 104.5,62.5C 102.05,62.702 99.717,62.3686 97.5,61.5C 98.5188,59.8985 100.019,58.8985 102,58.5C 104.279,59.3914 106.446,60.3914 108.5,61.5 Z"/></g>
<g><path style="opacity:0.18" fill="#a0aec1" d="M 108.5,61.5 C 109.831,64.1267 111.664,66.46 114,68.5C 116.068,66.6038 117.901,64.6038 119.5,62.5C 114.926,73.3878 111.259,73.0544 108.5,61.5 Z"/></g>
<g><path style="opacity:1" fill="#554534" d="M 105.5,69.5 C 106.882,72.3943 108.882,74.8943 111.5,77C 112.928,77.5791 114.262,77.4124 115.5,76.5C 114.816,78.1852 113.483,79.1852 111.5,79.5C 109.712,77.2092 107.712,75.0425 105.5,73C 104.552,72.5172 103.552,72.3505 102.5,72.5C 102.047,75.6521 103.047,78.1521 105.5,80C 103.942,80.21 102.609,80.71 101.5,81.5C 98.6027,82.129 95.936,83.129 93.5,84.5C 91.965,85.3543 90.6316,85.3543 89.5,84.5C 92.8674,82.3772 96.534,81.0439 100.5,80.5C 99.8333,75.8405 99.6666,71.1738 100,66.5C 100.689,65.6433 101.522,64.9767 102.5,64.5C 103.696,66.1446 104.696,67.8113 105.5,69.5 Z"/></g>
<g><path style="opacity:1" fill="#66543c" d="M 22.5,63.5 C 24.5499,67.0614 27.2166,70.228 30.5,73C 36.1264,74.9893 41.793,76.8226 47.5,78.5C 50.7976,80.4854 54.1309,82.4854 57.5,84.5C 57.5,85.1667 57.1667,85.5 56.5,85.5C 54.1054,83.3999 51.4387,82.8999 48.5,84C 49.1667,83.3333 49.8333,82.6667 50.5,82C 43.1948,79.0654 35.8614,76.2321 28.5,73.5C 26.2985,75.0565 26.2985,76.2232 28.5,77C 27.6634,78.0113 27.33,79.1779 27.5,80.5C 26.1301,80.1435 25.1301,79.3102 24.5,78C 23.8148,75.2048 23.3148,72.3715 23,69.5C 22.6174,68.944 22.1174,68.6107 21.5,68.5C 19.8823,66.3441 20.2157,64.6774 22.5,63.5 Z"/></g>
<g><path style="opacity:0.969" fill="#faf6f3" d="M 29.5,62.5 C 29.5858,63.4959 29.2524,64.3292 28.5,65C 32.4494,67.3172 36.2828,69.8172 40,72.5C 44.9784,71.2511 47.4784,73.2511 47.5,78.5C 41.793,76.8226 36.1264,74.9893 30.5,73C 27.2166,70.228 24.5499,67.0614 22.5,63.5C 22.9118,61.0274 21.9118,59.6941 19.5,59.5C 19.795,57.5767 20.6283,55.9101 22,54.5C 22.9411,56.7721 24.2745,58.7721 26,60.5C 27.6665,59.6598 27.8331,60.1598 26.5,62C 27.448,62.4828 28.448,62.6495 29.5,62.5 Z"/></g>
<g><path style="opacity:0.184" fill="#a5abbe" d="M 202.5,60.5 C 201,64.8259 198.666,68.6593 195.5,72C 186.595,73.635 178.095,76.4684 170,80.5C 166.719,79.0401 163.886,77.0401 161.5,74.5C 164.14,74.954 166.473,76.1207 168.5,78C 177.45,75.5763 186.45,72.9096 195.5,70C 197.488,66.4987 199.822,63.332 202.5,60.5 Z"/></g>
<g><path style="opacity:0.983" fill="#f9fafb" d="M 88.5,78.5 C 89.609,78.4431 90.609,78.1098 91.5,77.5C 91.6107,78.1174 91.944,78.6174 92.5,79C 90.6079,79.9734 88.6079,80.6401 86.5,81C 89.2764,82.7787 88.9431,83.7787 85.5,84C 86.2524,84.6708 86.5858,85.5041 86.5,86.5C 85.8333,86.8333 85.1667,87.1667 84.5,87.5C 81.23,85.8993 78.5633,83.5659 76.5,80.5C 75.0295,81.3805 74.1962,82.7139 74,84.5C 72.5,82.1667 71,79.8333 69.5,77.5C 67.8045,78.1744 66.1379,78.8411 64.5,79.5C 64.4226,78.2502 63.756,77.4169 62.5,77C 63.09,75.7011 64.09,74.8678 65.5,74.5C 70.1971,74.2342 74.8638,74.7342 79.5,76C 81.9309,79.2909 84.9309,80.1242 88.5,78.5 Z"/></g>
<g><path style="opacity:0.948" fill="#eff3f7" d="M 199.5,101.5 C 198.099,101.971 196.766,102.638 195.5,103.5C 201.269,112.162 205.269,121.495 207.5,131.5C 207.5,133.167 207.5,134.833 207.5,136.5C 205.833,136.5 204.167,136.5 202.5,136.5C 200.638,125.567 196.638,115.567 190.5,106.5C 190.167,105.833 189.833,105.167 189.5,104.5C 191.992,101.518 194.992,99.0178 198.5,97C 200.108,96.342 201.275,96.842 202,98.5C 202.611,96.2499 203.944,94.5832 206,93.5C 206.333,93.8333 206.667,94.1667 207,94.5C 206.204,91.3813 207.204,88.7146 210,86.5C 210.97,81.0122 212.47,75.6788 214.5,70.5C 214.146,67.5585 213.48,64.7252 212.5,62C 210.109,60.9651 207.776,60.7985 205.5,61.5C 203.124,66.4183 200.124,70.9183 196.5,75C 189.876,76.2637 183.543,78.4303 177.5,81.5C 176.914,81.2907 176.414,80.9574 176,80.5C 173.367,81.7525 170.867,83.0858 168.5,84.5C 166.463,81.3045 163.629,78.9712 160,77.5C 157.849,77.7649 156.182,78.7649 155,80.5C 153.026,80.3528 151.026,80.0195 149,79.5C 148.295,81.9856 147.462,81.9856 146.5,79.5C 146.833,78.8333 147.167,78.1667 147.5,77.5C 151.726,73.97 156.392,72.97 161.5,74.5C 163.886,77.0401 166.719,79.0401 170,80.5C 178.095,76.4684 186.595,73.635 195.5,72C 198.666,68.6593 201,64.8259 202.5,60.5C 207.537,56.549 211.704,57.549 215,63.5C 217.476,75.4206 214.976,86.2539 207.5,96C 204.935,98.0795 202.268,99.9128 199.5,101.5 Z"/></g>
<g><path style="opacity:0.973" fill="#f0e9f0" d="M 29.5,62.5 C 31.046,65.1999 33.3794,67.0332 36.5,68C 44.0345,70.0637 51.2012,72.897 58,76.5C 66.1704,70.0011 74.337,70.0011 82.5,76.5C 83.9179,78.3079 85.9179,78.9746 88.5,78.5C 84.9309,80.1242 81.9309,79.2909 79.5,76C 74.8638,74.7342 70.1971,74.2342 65.5,74.5C 64.09,74.8678 63.09,75.7011 62.5,77C 63.756,77.4169 64.4226,78.2502 64.5,79.5C 62.4268,81.5798 60.0934,83.2464 57.5,84.5C 54.1309,82.4854 50.7976,80.4854 47.5,78.5C 47.4784,73.2511 44.9784,71.2511 40,72.5C 36.2828,69.8172 32.4494,67.3172 28.5,65C 29.2524,64.3292 29.5858,63.4959 29.5,62.5 Z"/></g>
<g><path style="opacity:0.153" fill="#c1b0c2" d="M 94.5,64.5 C 94.8242,68.5546 94.4909,72.5546 93.5,76.5C 92.8165,76.8627 92.1499,77.1961 91.5,77.5C 90.609,78.1098 89.609,78.4431 88.5,78.5C 85.9179,78.9746 83.9179,78.3079 82.5,76.5C 85.214,77.863 87.8806,77.6963 90.5,76C 91.9681,72.1798 93.3015,68.3465 94.5,64.5 Z"/></g>
<g><path style="opacity:0.994" fill="#f8f5f2" d="M 97.5,61.5 C 99.717,62.3686 102.05,62.702 104.5,62.5C 104.383,64.4835 105.05,66.1502 106.5,67.5C 106.137,68.1835 105.804,68.8501 105.5,69.5C 104.696,67.8113 103.696,66.1446 102.5,64.5C 101.522,64.9767 100.689,65.6433 100,66.5C 99.6666,71.1738 99.8333,75.8405 100.5,80.5C 96.534,81.0439 92.8674,82.3772 89.5,84.5C 88.5,85.1667 87.5,85.8333 86.5,86.5C 86.5858,85.5041 86.2524,84.6708 85.5,84C 88.9431,83.7787 89.2764,82.7787 86.5,81C 88.6079,80.6401 90.6079,79.9734 92.5,79C 91.944,78.6174 91.6107,78.1174 91.5,77.5C 92.1499,77.1961 92.8165,76.8627 93.5,76.5C 94.4909,72.5546 94.8242,68.5546 94.5,64.5C 94.5,64.1667 94.5,63.8333 94.5,63.5C 95.5,62.8333 96.5,62.1667 97.5,61.5 Z"/></g>
<g><path style="opacity:1" fill="#947959" d="M 56.5,85.5 C 54.7981,89.2019 52.1315,91.8686 48.5,93.5C 45.7744,90.2038 42.1077,88.5372 37.5,88.5C 37.1913,85.6545 35.5246,84.1545 32.5,84C 39.1914,77.6831 38.858,77.1831 31.5,82.5C 30.1401,81.8201 28.8068,81.1534 27.5,80.5C 27.33,79.1779 27.6634,78.0113 28.5,77C 26.2985,76.2232 26.2985,75.0565 28.5,73.5C 35.8614,76.2321 43.1948,79.0654 50.5,82C 49.8333,82.6667 49.1667,83.3333 48.5,84C 51.4387,82.8999 54.1054,83.3999 56.5,85.5 Z"/></g>
<g><path style="opacity:1" fill="#f5f8f5" d="M 127.5,65.5 C 129.363,66.9672 130.696,68.9672 131.5,71.5C 131.256,74.3498 130.923,77.1831 130.5,80C 133.5,81.1667 136.5,82.3333 139.5,83.5C 140.183,83.1373 140.85,82.8039 141.5,82.5C 143.664,82.2785 145.33,81.2785 146.5,79.5C 147.462,81.9856 148.295,81.9856 149,79.5C 151.026,80.0195 153.026,80.3528 155,80.5C 156.182,78.7649 157.849,77.7649 160,77.5C 163.629,78.9712 166.463,81.3045 168.5,84.5C 168.5,85.1667 168.5,85.8333 168.5,86.5C 165.143,84.0631 161.643,81.7297 158,79.5C 157.017,81.4484 155.85,83.2817 154.5,85C 152.924,84.8481 151.591,84.0148 150.5,82.5C 148.973,84.1933 147.64,86.0266 146.5,88C 145.255,88.7914 143.922,89.2914 142.5,89.5C 137.718,85.7757 132.385,83.109 126.5,81.5C 126.833,78.8333 127.167,76.1667 127.5,73.5C 128.767,70.9387 128.767,68.272 127.5,65.5 Z"/></g>
<g><path style="opacity:1" fill="#4d3621" d="M 127.5,73.5 C 127.167,76.1667 126.833,78.8333 126.5,81.5C 132.385,83.109 137.718,85.7757 142.5,89.5C 142.5,90.1667 142.167,90.5 141.5,90.5C 136.691,87.5938 131.691,84.9271 126.5,82.5C 123.122,85.3575 122.622,88.6909 125,92.5C 127.151,89.888 127.985,89.888 127.5,92.5C 129.261,94.3678 131.261,95.7011 133.5,96.5C 131.517,97.4706 129.517,98.4706 127.5,99.5C 126.691,98.5313 125.691,97.6979 124.5,97C 125.337,95.9887 125.67,94.8221 125.5,93.5C 121.956,93.7612 120.122,92.0945 120,88.5C 119.275,87.9415 118.442,87.6082 117.5,87.5C 113.228,90.0415 108.561,91.8748 103.5,93C 101.277,93.6517 100.11,95.1517 100,97.5C 99.0228,96.2264 98.1894,96.2264 97.5,97.5C 96.5,97.1667 95.8333,96.5 95.5,95.5C 98.2919,95.5479 100.125,94.2146 101,91.5C 101.333,91.8333 101.667,92.1667 102,92.5C 103.945,91.1367 106.112,90.3034 108.5,90C 110.243,88.8905 111.576,87.3905 112.5,85.5C 117.057,86.9884 120.057,85.3217 121.5,80.5C 122.748,79.9598 123.915,79.2931 125,78.5C 125.709,76.0503 126.543,74.3836 127.5,73.5 Z"/></g>
<g><path style="opacity:1" fill="#725940" d="M 127.5,65.5 C 128.767,68.272 128.767,70.9387 127.5,73.5C 126.543,74.3836 125.709,76.0503 125,78.5C 123.915,79.2931 122.748,79.9598 121.5,80.5C 120.057,85.3217 117.057,86.9884 112.5,85.5C 111.576,87.3905 110.243,88.8905 108.5,90C 106.112,90.3034 103.945,91.1367 102,92.5C 101.667,92.1667 101.333,91.8333 101,91.5C 100.125,94.2146 98.2919,95.5479 95.5,95.5C 92.7549,93.4324 89.7549,91.7657 86.5,90.5C 85.8333,89.5 85.1667,88.5 84.5,87.5C 85.1667,87.1667 85.8333,86.8333 86.5,86.5C 87.5,85.8333 88.5,85.1667 89.5,84.5C 90.6316,85.3543 91.965,85.3543 93.5,84.5C 92.5442,85.6594 91.5442,86.8261 90.5,88C 92.4028,92.5154 95.4028,93.5154 99.5,91C 98.0072,89.8438 98.1739,89.0104 100,88.5C 103.405,87.6456 106.571,86.3123 109.5,84.5C 107.464,82.0162 104.798,81.0162 101.5,81.5C 102.609,80.71 103.942,80.21 105.5,80C 103.047,78.1521 102.047,75.6521 102.5,72.5C 103.552,72.3505 104.552,72.5172 105.5,73C 107.712,75.0425 109.712,77.2092 111.5,79.5C 113.483,79.1852 114.816,78.1852 115.5,76.5C 119.656,73.5023 122.989,69.669 125.5,65C 126.437,64.3083 127.103,64.475 127.5,65.5 Z"/></g>
<g><path style="opacity:1" fill="#47301d" d="M 21.5,68.5 C 22.1174,68.6107 22.6174,68.944 23,69.5C 23.3148,72.3715 23.8148,75.2048 24.5,78C 25.1301,79.3102 26.1301,80.1435 27.5,80.5C 28.8068,81.1534 30.1401,81.8201 31.5,82.5C 38.858,77.1831 39.1914,77.6831 32.5,84C 35.5246,84.1545 37.1913,85.6545 37.5,88.5C 42.1077,88.5372 45.7744,90.2038 48.5,93.5C 46.5887,94.075 44.922,95.075 43.5,96.5C 37.4449,91.4508 30.9449,86.1175 24,80.5C 23,78.5 22,76.5 21,74.5C 20.2109,72.2884 20.3775,70.2884 21.5,68.5 Z"/></g>
<g><path style="opacity:1" fill="#9e7f59" d="M 180.5,82.5 C 180.842,81.6618 181.508,81.3284 182.5,81.5C 185.345,82.3438 188.345,83.0104 191.5,83.5C 191.859,85.371 192.859,86.871 194.5,88C 192.934,88.6082 191.6,89.4415 190.5,90.5C 187.315,90.9804 184.481,90.3137 182,88.5C 181.617,89.056 181.117,89.3893 180.5,89.5C 179.71,88.2058 178.71,87.0391 177.5,86C 178.833,85 180.167,84 181.5,83C 181.272,82.6012 180.938,82.4346 180.5,82.5 Z"/></g>
<g><path style="opacity:1" fill="#654c31" d="M 205.5,77.5 C 205.938,77.4346 206.272,77.6012 206.5,78C 204.19,79.6374 202.69,81.804 202,84.5C 196.111,90.9106 188.944,94.9106 180.5,96.5C 181.398,95.8423 182.398,95.1757 183.5,94.5C 181.98,91.8447 182.48,91.1781 185,92.5C 187.03,92.0463 188.863,91.3796 190.5,90.5C 191.6,89.4415 192.934,88.6082 194.5,88C 192.859,86.871 191.859,85.371 191.5,83.5C 193.305,84.2371 194.971,85.2371 196.5,86.5C 197.719,85.3539 199.052,84.3539 200.5,83.5C 201.747,81.9579 201.747,80.4579 200.5,79C 201.449,78.3828 202.282,78.5494 203,79.5C 203.708,78.6195 204.542,77.9528 205.5,77.5 Z"/></g>
<g><path style="opacity:1" fill="#775a40" d="M 180.5,82.5 C 180.938,82.4346 181.272,82.6012 181.5,83C 180.167,84 178.833,85 177.5,86C 178.71,87.0391 179.71,88.2058 180.5,89.5C 179.883,89.6107 179.383,89.944 179,90.5C 177.172,86.6462 174.672,85.9795 171.5,88.5C 170.893,88.3764 170.56,88.0431 170.5,87.5C 173.55,85.3084 176.883,83.6417 180.5,82.5 Z"/></g>
<g><path style="opacity:1" fill="#d3dee6" d="M 81.5,88.5 C 79.6756,90.1374 77.5089,91.1374 75,91.5C 71.1958,90.7952 67.3625,90.4619 63.5,90.5C 63.8432,92.4832 63.1765,93.8166 61.5,94.5C 60.0027,91.1583 60.6694,88.325 63.5,86C 62.8333,85.3333 62.1667,84.6667 61.5,84C 63.6414,82.6924 65.6414,81.1924 67.5,79.5C 69.2174,80.6685 69.8841,82.3352 69.5,84.5C 71.3904,84.2965 72.8904,84.9632 74,86.5C 74.9234,85.2412 75.7568,83.9079 76.5,82.5C 78.1897,84.5193 79.8564,86.5193 81.5,88.5 Z"/></g>
<g><path style="opacity:1" fill="#2c1d14" d="M 19.5,59.5 C 21.9118,59.6941 22.9118,61.0274 22.5,63.5C 20.2157,64.6774 19.8823,66.3441 21.5,68.5C 20.3775,70.2884 20.2109,72.2884 21,74.5C 22,76.5 23,78.5 24,80.5C 30.9449,86.1175 37.4449,91.4508 43.5,96.5C 41.8828,97.038 40.2161,97.3713 38.5,97.5C 32.9017,93.7696 27.735,89.4362 23,84.5C 18.5331,76.6426 17.3665,68.3092 19.5,59.5 Z"/></g>
<g><path style="opacity:1" fill="#97744a" d="M 101.5,81.5 C 104.798,81.0162 107.464,82.0162 109.5,84.5C 106.571,86.3123 103.405,87.6456 100,88.5C 98.1739,89.0104 98.0072,89.8438 99.5,91C 95.4028,93.5154 92.4028,92.5154 90.5,88C 91.5442,86.8261 92.5442,85.6594 93.5,84.5C 95.936,83.129 98.6027,82.129 101.5,81.5 Z"/></g>
<g><path style="opacity:1" fill="#c2ced3" d="M 84.5,87.5 C 85.1667,88.5 85.8333,89.5 86.5,90.5C 85.1667,90.1667 83.8333,89.8333 82.5,89.5C 82.5,88.8333 82.1667,88.5 81.5,88.5C 79.8564,86.5193 78.1897,84.5193 76.5,82.5C 75.7568,83.9079 74.9234,85.2412 74,86.5C 72.8904,84.9632 71.3904,84.2965 69.5,84.5C 69.8841,82.3352 69.2174,80.6685 67.5,79.5C 65.6414,81.1924 63.6414,82.6924 61.5,84C 62.1667,84.6667 62.8333,85.3333 63.5,86C 60.6694,88.325 60.0027,91.1583 61.5,94.5C 59.857,94.5198 58.5237,93.8532 57.5,92.5C 55.9984,93.0831 54.6651,93.9164 53.5,95C 54.8333,95.6667 54.8333,96.3333 53.5,97C 52.552,97.4828 51.552,97.6495 50.5,97.5C 50.5,98.8333 50.5,100.167 50.5,101.5C 49.5,101.5 48.5,101.5 47.5,101.5C 46.5,100.167 45.5,100.167 44.5,101.5C 42.6998,102.473 40.8665,103.473 39,104.5C 38.6012,104.272 38.4346,103.938 38.5,103.5C 38.9867,102.527 39.4867,101.527 40,100.5C 43.3644,98.7448 46.1977,96.4115 48.5,93.5C 52.1315,91.8686 54.7981,89.2019 56.5,85.5C 57.1667,85.5 57.5,85.1667 57.5,84.5C 60.0934,83.2464 62.4268,81.5798 64.5,79.5C 66.1379,78.8411 67.8045,78.1744 69.5,77.5C 71,79.8333 72.5,82.1667 74,84.5C 74.1962,82.7139 75.0295,81.3805 76.5,80.5C 78.5633,83.5659 81.23,85.8993 84.5,87.5 Z"/></g>
<g><path style="opacity:1" fill="#d5e2e9" d="M 81.5,88.5 C 82.1667,88.5 82.5,88.8333 82.5,89.5C 82.84,91.679 83.84,93.5123 85.5,95C 84.5509,95.6172 83.7175,95.4506 83,94.5C 82.5357,95.0944 82.369,95.7611 82.5,96.5C 81.609,97.1098 80.609,97.4431 79.5,97.5C 76.0804,95.7779 72.4137,95.1113 68.5,95.5C 64.0999,95.7034 60.4333,97.5368 57.5,101C 54.1518,100.915 51.9852,102.415 51,105.5C 50.1841,106.823 49.0174,107.489 47.5,107.5C 47.0461,105.741 47.0461,103.741 47.5,101.5C 48.5,101.5 49.5,101.5 50.5,101.5C 50.5,100.167 50.5,98.8333 50.5,97.5C 51.552,97.6495 52.552,97.4828 53.5,97C 54.8333,96.3333 54.8333,95.6667 53.5,95C 54.6651,93.9164 55.9984,93.0831 57.5,92.5C 58.5237,93.8532 59.857,94.5198 61.5,94.5C 63.1765,93.8166 63.8432,92.4832 63.5,90.5C 67.3625,90.4619 71.1958,90.7952 75,91.5C 77.5089,91.1374 79.6756,90.1374 81.5,88.5 Z"/></g>
<g><path style="opacity:1" fill="#c6d2d8" d="M 168.5,86.5 C 168.5,87.1667 168.833,87.5 169.5,87.5C 169.351,88.552 169.517,89.552 170,90.5C 172.974,93.9689 176.474,96.6355 180.5,98.5C 180.5,99.5 180.5,100.5 180.5,101.5C 182.681,101.284 184.347,102.117 185.5,104C 183.005,103.922 180.505,103.422 178,102.5C 177.235,102.57 176.735,102.903 176.5,103.5C 173.834,101.081 172.001,98.0809 171,94.5C 170.275,96.158 169.108,96.658 167.5,96C 166.695,94.0283 165.361,92.5283 163.5,91.5C 162.52,92.9814 161.353,94.3147 160,95.5C 159.583,94.244 158.75,93.5774 157.5,93.5C 154.93,92.516 154.93,91.3493 157.5,90C 154.77,89.2716 152.103,89.4383 149.5,90.5C 149.167,89.8333 148.833,89.1667 148.5,88.5C 146.513,90.3274 144.179,91.3274 141.5,91.5C 141.5,91.1667 141.5,90.8333 141.5,90.5C 142.167,90.5 142.5,90.1667 142.5,89.5C 143.922,89.2914 145.255,88.7914 146.5,88C 147.64,86.0266 148.973,84.1933 150.5,82.5C 151.591,84.0148 152.924,84.8481 154.5,85C 155.85,83.2817 157.017,81.4484 158,79.5C 161.643,81.7297 165.143,84.0631 168.5,86.5 Z"/></g>
<g><path style="opacity:1" fill="#897458" d="M 180.5,89.5 C 181.117,89.3893 181.617,89.056 182,88.5C 184.481,90.3137 187.315,90.9804 190.5,90.5C 188.863,91.3796 187.03,92.0463 185,92.5C 182.48,91.1781 181.98,91.8447 183.5,94.5C 182.398,95.1757 181.398,95.8423 180.5,96.5C 180.5,97.1667 180.5,97.8333 180.5,98.5C 176.474,96.6355 172.974,93.9689 170,90.5C 169.517,89.552 169.351,88.552 169.5,87.5C 169.833,87.5 170.167,87.5 170.5,87.5C 170.56,88.0431 170.893,88.3764 171.5,88.5C 174.672,85.9795 177.172,86.6462 179,90.5C 179.383,89.944 179.883,89.6107 180.5,89.5 Z"/></g>
<g><path style="opacity:0.989" fill="#f8f6f1" d="M 189.5,104.5 C 188.5,104.167 187.833,103.5 187.5,102.5C 193.72,98.4535 199.553,93.7868 205,88.5C 207.736,84.2205 209.236,79.5539 209.5,74.5C 210.622,72.7116 210.789,70.7116 210,68.5C 209.804,66.7139 208.971,65.3805 207.5,64.5C 205.474,68.698 202.807,72.5314 199.5,76C 193.951,78.2737 188.285,80.107 182.5,81.5C 181.508,81.3284 180.842,81.6618 180.5,82.5C 176.883,83.6417 173.55,85.3084 170.5,87.5C 170.167,87.5 169.833,87.5 169.5,87.5C 168.833,87.5 168.5,87.1667 168.5,86.5C 168.5,85.8333 168.5,85.1667 168.5,84.5C 170.867,83.0858 173.367,81.7525 176,80.5C 176.414,80.9574 176.914,81.2907 177.5,81.5C 183.543,78.4303 189.876,76.2637 196.5,75C 200.124,70.9183 203.124,66.4183 205.5,61.5C 207.776,60.7985 210.109,60.9651 212.5,62C 213.48,64.7252 214.146,67.5585 214.5,70.5C 212.47,75.6788 210.97,81.0122 210,86.5C 207.204,88.7146 206.204,91.3813 207,94.5C 206.667,94.1667 206.333,93.8333 206,93.5C 203.944,94.5832 202.611,96.2499 202,98.5C 201.275,96.842 200.108,96.342 198.5,97C 194.992,99.0178 191.992,101.518 189.5,104.5 Z"/></g>
<g><path style="opacity:1" fill="#8b6e4b" d="M 205.5,76.5 C 205.5,76.8333 205.5,77.1667 205.5,77.5C 204.542,77.9528 203.708,78.6195 203,79.5C 202.282,78.5494 201.449,78.3828 200.5,79C 201.747,80.4579 201.747,81.9579 200.5,83.5C 199.052,84.3539 197.719,85.3539 196.5,86.5C 194.971,85.2371 193.305,84.2371 191.5,83.5C 190.402,82.603 190.402,81.7697 191.5,81C 196.679,80.1614 200.846,77.6614 204,73.5C 204.232,74.7375 204.732,75.7375 205.5,76.5 Z"/></g>
<g><path style="opacity:1" fill="#685742" d="M 209.5,74.5 C 210.331,69.8553 209.164,68.8553 206,71.5C 206.771,73.18 206.605,74.8467 205.5,76.5C 204.732,75.7375 204.232,74.7375 204,73.5C 200.846,77.6614 196.679,80.1614 191.5,81C 190.402,81.7697 190.402,82.603 191.5,83.5C 188.345,83.0104 185.345,82.3438 182.5,81.5C 188.285,80.107 193.951,78.2737 199.5,76C 202.807,72.5314 205.474,68.698 207.5,64.5C 208.971,65.3805 209.804,66.7139 210,68.5C 210.789,70.7116 210.622,72.7116 209.5,74.5 Z"/></g>
<g><path style="opacity:1" fill="#937857" d="M 141.5,90.5 C 141.5,90.8333 141.5,91.1667 141.5,91.5C 139.5,92.1667 138.167,93.5 137.5,95.5C 136.041,95.4326 134.708,95.7659 133.5,96.5C 131.261,95.7011 129.261,94.3678 127.5,92.5C 127.985,89.888 127.151,89.888 125,92.5C 122.622,88.6909 123.122,85.3575 126.5,82.5C 131.691,84.9271 136.691,87.5938 141.5,90.5 Z"/></g>
<g><path style="opacity:0.443" fill="#a5b2bf" d="M 17.5,87.5 C 20.8541,92.0165 25.0207,95.6832 30,98.5C 30.2494,100.668 29.4161,102.335 27.5,103.5C 28.0283,102.153 28.195,100.819 28,99.5C 23.2078,96.5469 19.7078,92.5469 17.5,87.5 Z"/></g>
<g><path style="opacity:1" fill="#301f16" d="M 127.5,99.5 C 126.738,101.262 125.404,102.262 123.5,102.5C 120.119,99.7983 116.452,97.465 112.5,95.5C 109.299,97.2622 106.299,99.2622 103.5,101.5C 101.246,100.585 99.2459,99.2516 97.5,97.5C 98.1894,96.2264 99.0228,96.2264 100,97.5C 100.11,95.1517 101.277,93.6517 103.5,93C 108.561,91.8748 113.228,90.0415 117.5,87.5C 118.442,87.6082 119.275,87.9415 120,88.5C 120.122,92.0945 121.956,93.7612 125.5,93.5C 125.67,94.8221 125.337,95.9887 124.5,97C 125.691,97.6979 126.691,98.5313 127.5,99.5 Z"/></g>
<g><path style="opacity:1" fill="#e4eaef" d="M 175.5,111.5 C 173.194,111.007 170.861,110.674 168.5,110.5C 164.675,103.997 159.009,101.997 151.5,104.5C 145.344,107.481 141.011,112.148 138.5,118.5C 138.728,120.397 139.728,121.73 141.5,122.5C 140.528,122.593 139.528,122.926 138.5,123.5C 137.167,122.5 135.833,121.5 134.5,120.5C 135.403,117.609 135.736,114.609 135.5,111.5C 137.074,111.063 138.241,110.063 139,108.5C 142.398,98.7143 149.231,95.0476 159.5,97.5C 159.351,98.552 159.517,99.552 160,100.5C 160.615,98.8839 161.615,97.5505 163,96.5C 164.259,101.049 166.926,104.382 171,106.5C 171.483,107.448 171.649,108.448 171.5,109.5C 173.655,109.372 175.655,109.872 177.5,111C 176.906,111.464 176.239,111.631 175.5,111.5 Z"/></g>
<g><path style="opacity:1" fill="#332318" d="M 209.5,74.5 C 209.236,79.5539 207.736,84.2205 205,88.5C 199.553,93.7868 193.72,98.4535 187.5,102.5C 185.167,101.167 182.833,99.8333 180.5,98.5C 180.5,97.8333 180.5,97.1667 180.5,96.5C 188.944,94.9106 196.111,90.9106 202,84.5C 202.69,81.804 204.19,79.6374 206.5,78C 206.272,77.6012 205.938,77.4346 205.5,77.5C 205.5,77.1667 205.5,76.8333 205.5,76.5C 206.605,74.8467 206.771,73.18 206,71.5C 209.164,68.8553 210.331,69.8553 209.5,74.5 Z"/></g>
<g><path style="opacity:1" fill="#ccd8e1" d="M 82.5,89.5 C 83.8333,89.8333 85.1667,90.1667 86.5,90.5C 90.3527,94.4483 94.686,97.9483 99.5,101C 101.539,102.926 103.206,105.093 104.5,107.5C 104.44,108.043 104.107,108.376 103.5,108.5C 102.167,107.5 100.833,106.5 99.5,105.5C 99.1667,105.833 98.8333,106.167 98.5,106.5C 100.961,108.29 102.627,110.623 103.5,113.5C 103.611,114.117 103.944,114.617 104.5,115C 102.998,115.583 101.665,116.416 100.5,117.5C 101.988,119.886 101.655,120.552 99.5,119.5C 97.283,118.631 94.9496,118.298 92.5,118.5C 94.2646,117.539 96.2646,117.205 98.5,117.5C 98.5,115.5 98.5,113.5 98.5,111.5C 97.5,111.5 96.5,111.5 95.5,111.5C 95.5,110.167 95.5,108.833 95.5,107.5C 94.325,107.719 93.325,107.386 92.5,106.5C 91.9756,104.547 90.9756,102.88 89.5,101.5C 90.4795,99.392 90.1462,97.392 88.5,95.5C 87.7492,96.376 87.2492,97.376 87,98.5C 85.6703,97.4178 84.1703,96.7512 82.5,96.5C 82.369,95.7611 82.5357,95.0944 83,94.5C 83.7175,95.4506 84.5509,95.6172 85.5,95C 83.84,93.5123 82.84,91.679 82.5,89.5 Z"/></g>
<g><path style="opacity:1" fill="#d7e1e7" d="M 176.5,103.5 C 178.027,103.427 179.027,104.094 179.5,105.5C 176.929,106.762 176.929,108.095 179.5,109.5C 179.291,110.086 178.957,110.586 178.5,111C 179.667,111.5 180.5,112.333 181,113.5C 183.555,121.055 184.388,128.722 183.5,136.5C 181.167,136.5 178.833,136.5 176.5,136.5C 176.5,139.167 176.5,141.833 176.5,144.5C 175.167,142.833 173.833,141.167 172.5,139.5C 172.574,137.589 173.574,136.422 175.5,136C 174.72,134.927 174.887,133.76 176,132.5C 177.333,133.833 178.667,133.833 180,132.5C 179.333,128.167 179.333,123.833 180,119.5C 178.572,122.39 177.072,125.056 175.5,127.5C 174.909,126.849 174.243,126.182 173.5,125.5C 174.804,123.984 174.304,123.318 172,123.5C 171.167,123.667 170.333,123.833 169.5,124C 171.405,124.826 171.739,125.993 170.5,127.5C 169.893,127.376 169.56,127.043 169.5,126.5C 168.066,124.622 166.399,123.955 164.5,124.5C 164.93,123.579 166.264,123.079 168.5,123C 166.866,122.506 165.199,122.34 163.5,122.5C 165.265,121.539 167.265,121.205 169.5,121.5C 171.849,119.957 174.183,119.124 176.5,119C 175.565,116.619 175.232,114.119 175.5,111.5C 176.239,111.631 176.906,111.464 177.5,111C 175.655,109.872 173.655,109.372 171.5,109.5C 171.649,108.448 171.483,107.448 171,106.5C 166.926,104.382 164.259,101.049 163,96.5C 161.615,97.5505 160.615,98.8839 160,100.5C 159.517,99.552 159.351,98.552 159.5,97.5C 149.231,95.0476 142.398,98.7143 139,108.5C 138.241,110.063 137.074,111.063 135.5,111.5C 135.343,110.127 135.51,108.793 136,107.5C 136.667,106.167 137.333,106.167 138,107.5C 139.619,105.044 140.119,102.544 139.5,100C 141.619,97.6073 144.285,96.2739 147.5,96C 146.304,95.3457 146.304,94.8457 147.5,94.5C 148.167,94.8333 148.833,95.1667 149.5,95.5C 152.311,94.9204 154.977,94.2537 157.5,93.5C 158.75,93.5774 159.583,94.244 160,95.5C 161.353,94.3147 162.52,92.9814 163.5,91.5C 165.361,92.5283 166.695,94.0283 167.5,96C 169.108,96.658 170.275,96.158 171,94.5C 172.001,98.0809 173.834,101.081 176.5,103.5 Z"/></g>
<g><path style="opacity:1" fill="#d9e2ea" d="M 92.5,118.5 C 91.609,119.11 90.609,119.443 89.5,119.5C 90.1383,117.54 90.1383,115.707 89.5,114C 91.9856,113.295 91.9856,112.462 89.5,111.5C 88.1579,108.834 86.3245,106.501 84,104.5C 83.5172,103.552 83.3505,102.552 83.5,101.5C 82.1667,101.5 80.8333,101.5 79.5,101.5C 79.5,100.167 79.5,98.8333 79.5,97.5C 80.609,97.4431 81.609,97.1098 82.5,96.5C 84.1703,96.7512 85.6703,97.4178 87,98.5C 87.2492,97.376 87.7492,96.376 88.5,95.5C 90.1462,97.392 90.4795,99.392 89.5,101.5C 90.9756,102.88 91.9756,104.547 92.5,106.5C 93.325,107.386 94.325,107.719 95.5,107.5C 95.5,108.833 95.5,110.167 95.5,111.5C 96.5,111.5 97.5,111.5 98.5,111.5C 98.5,113.5 98.5,115.5 98.5,117.5C 96.2646,117.205 94.2646,117.539 92.5,118.5 Z"/></g>
<g><path style="opacity:1" fill="#c8d8e0" d="M 137.5,96.5 C 136.047,97.8249 136.381,98.6582 138.5,99C 137.751,100.734 137.251,102.567 137,104.5C 131.553,108.091 129.053,113.091 129.5,119.5C 127.435,119.517 125.435,119.85 123.5,120.5C 123.511,118.983 124.177,117.816 125.5,117C 124.446,115.612 124.28,114.112 125,112.5C 127.27,110.685 127.936,108.352 127,105.5C 125.488,106.257 124.154,107.257 123,108.5C 122.601,108.272 122.435,107.938 122.5,107.5C 126.258,102.123 131.258,98.456 137.5,96.5 Z"/></g>
<g><path style="opacity:1" fill="#e9eff4" d="M 78.5,106.5 C 79.822,108.311 80.322,110.311 80,112.5C 77.2628,111.39 74.4294,111.223 71.5,112C 70.6634,113.011 70.33,114.178 70.5,115.5C 71.1184,118.033 70.9517,120.699 70,123.5C 68.8575,121.382 68.3575,119.382 68.5,117.5C 67.2613,117.942 66.2613,118.609 65.5,119.5C 64.3951,118.4 63.0618,117.733 61.5,117.5C 60.0484,116.698 58.3817,116.198 56.5,116C 57.8882,115.111 57.7215,114.611 56,114.5C 53.5409,114.89 51.8743,116.224 51,118.5C 50.3551,117.354 49.5217,116.354 48.5,115.5C 49.2739,114.289 50.1072,114.289 51,115.5C 51.3114,114.258 50.8114,113.258 49.5,112.5C 50.4719,112.407 51.4719,112.074 52.5,111.5C 54.0174,111.511 55.1841,112.177 56,113.5C 56.4608,110.796 57.9608,108.296 60.5,106C 64.0452,104.459 67.3785,102.625 70.5,100.5C 71.4656,102.396 71.7989,104.396 71.5,106.5C 73.8333,106.5 76.1667,106.5 78.5,106.5 Z"/></g>
<g><path style="opacity:1" fill="#e2e8ed" d="M 68.5,95.5 C 72.4137,95.1113 76.0804,95.7779 79.5,97.5C 79.5,98.8333 79.5,100.167 79.5,101.5C 80.8333,101.5 82.1667,101.5 83.5,101.5C 83.3505,102.552 83.5172,103.552 84,104.5C 86.3245,106.501 88.1579,108.834 89.5,111.5C 87.8762,115.446 86.2095,115.446 84.5,111.5C 84.9382,111.565 85.2716,111.399 85.5,111C 83.8519,108.517 81.6852,106.684 79,105.5C 78.6012,105.728 78.4346,106.062 78.5,106.5C 76.1667,106.5 73.8333,106.5 71.5,106.5C 71.7989,104.396 71.4656,102.396 70.5,100.5C 67.3785,102.625 64.0452,104.459 60.5,106C 57.9608,108.296 56.4608,110.796 56,113.5C 55.1841,112.177 54.0174,111.511 52.5,111.5C 51.9569,111.44 51.6236,111.107 51.5,110.5C 55.7578,105.175 61.0912,101.009 67.5,98C 68.2524,97.3292 68.5858,96.4959 68.5,95.5 Z"/></g>
<g><path style="opacity:1" fill="#edf0f4" d="M 168.5,110.5 C 168.158,111.338 167.492,111.672 166.5,111.5C 164.976,110.826 163.642,109.826 162.5,108.5C 159.003,108.528 155.336,108.694 151.5,109C 146.859,110.974 143.526,114.308 141.5,119C 142.094,119.464 142.761,119.631 143.5,119.5C 145.179,122.195 147.179,124.695 149.5,127C 145.728,127.611 145.728,128.611 149.5,130C 148.833,130.333 148.167,130.667 147.5,131C 152.5,131.667 157.5,131.667 162.5,131C 163.826,128.71 164.492,126.543 164.5,124.5C 166.399,123.955 168.066,124.622 169.5,126.5C 166.294,129.197 163.294,132.197 160.5,135.5C 157.392,133.227 154.058,132.893 150.5,134.5C 147.885,132.721 145.218,132.055 142.5,132.5C 141.086,131.376 139.586,130.376 138,129.5C 137.383,128.551 137.549,127.718 138.5,127C 137.833,126.667 137.167,126.333 136.5,126C 137.416,125.722 138.082,125.222 138.5,124.5C 138.5,124.167 138.5,123.833 138.5,123.5C 139.528,122.926 140.528,122.593 141.5,122.5C 139.728,121.73 138.728,120.397 138.5,118.5C 141.011,112.148 145.344,107.481 151.5,104.5C 159.009,101.997 164.675,103.997 168.5,110.5 Z"/></g>
<g><path style="opacity:1" fill="#f4f5f9" d="M 166.5,111.5 C 164.393,112.468 162.059,112.802 159.5,112.5C 159.534,115.199 158.867,117.699 157.5,120C 158.337,121.011 158.67,122.178 158.5,123.5C 157.521,122.235 156.521,120.901 155.5,119.5C 154.205,120.098 152.872,120.598 151.5,121C 154.167,121.667 154.167,122.333 151.5,123C 154.937,123.649 155.104,124.149 152,124.5C 149.005,122.983 146.172,121.316 143.5,119.5C 142.761,119.631 142.094,119.464 141.5,119C 143.526,114.308 146.859,110.974 151.5,109C 155.336,108.694 159.003,108.528 162.5,108.5C 163.642,109.826 164.976,110.826 166.5,111.5 Z"/></g>
<g><path style="opacity:1" fill="#9db5c3" d="M 180.5,98.5 C 182.833,99.8333 185.167,101.167 187.5,102.5C 187.833,103.5 188.5,104.167 189.5,104.5C 189.833,105.167 190.167,105.833 190.5,106.5C 189.761,106.369 189.094,106.536 188.5,107C 191.768,110.022 193.434,113.522 193.5,117.5C 196.505,120.164 198.338,123.497 199,127.5C 199.436,129.847 199.936,132.181 200.5,134.5C 200.253,135.713 199.586,136.38 198.5,136.5C 196.94,132.573 194.94,128.906 192.5,125.5C 194.529,122.963 194.196,120.463 191.5,118C 191.833,117.667 192.167,117.333 192.5,117C 188.135,113.159 183.802,109.326 179.5,105.5C 179.027,104.094 178.027,103.427 176.5,103.5C 176.735,102.903 177.235,102.57 178,102.5C 180.505,103.422 183.005,103.922 185.5,104C 184.347,102.117 182.681,101.284 180.5,101.5C 180.5,100.5 180.5,99.5 180.5,98.5 Z"/></g>
<g><path style="opacity:1" fill="#ecf0f6" d="M 168.5,110.5 C 170.861,110.674 173.194,111.007 175.5,111.5C 175.232,114.119 175.565,116.619 176.5,119C 174.183,119.124 171.849,119.957 169.5,121.5C 165.535,119.927 161.868,120.593 158.5,123.5C 158.67,122.178 158.337,121.011 157.5,120C 158.867,117.699 159.534,115.199 159.5,112.5C 162.059,112.802 164.393,112.468 166.5,111.5C 167.492,111.672 168.158,111.338 168.5,110.5 Z"/></g>
<g><path style="opacity:1" fill="#d3dee4" d="M 157.5,93.5 C 154.977,94.2537 152.311,94.9204 149.5,95.5C 148.833,95.1667 148.167,94.8333 147.5,94.5C 146.304,94.8457 146.304,95.3457 147.5,96C 144.285,96.2739 141.619,97.6073 139.5,100C 140.119,102.544 139.619,105.044 138,107.5C 137.333,106.167 136.667,106.167 136,107.5C 135.51,108.793 135.343,110.127 135.5,111.5C 135.736,114.609 135.403,117.609 134.5,120.5C 132.958,119.699 131.292,119.366 129.5,119.5C 129.053,113.091 131.553,108.091 137,104.5C 137.251,102.567 137.751,100.734 138.5,99C 136.381,98.6582 136.047,97.8249 137.5,96.5C 137.5,96.1667 137.5,95.8333 137.5,95.5C 138.167,93.5 139.5,92.1667 141.5,91.5C 144.179,91.3274 146.513,90.3274 148.5,88.5C 148.833,89.1667 149.167,89.8333 149.5,90.5C 152.103,89.4383 154.77,89.2716 157.5,90C 154.93,91.3493 154.93,92.516 157.5,93.5 Z"/></g>
<g><path style="opacity:1" fill="#eaeef2" d="M 84.5,111.5 C 83.5655,112.568 83.2322,113.901 83.5,115.5C 84.9778,115.238 86.3112,115.571 87.5,116.5C 86.2634,117.281 85.2634,118.281 84.5,119.5C 85.706,121.149 87.0394,122.649 88.5,124C 87.3966,125.68 87.7299,127.18 89.5,128.5C 89.2907,129.086 88.9574,129.586 88.5,130C 85.5184,130.498 82.5184,130.665 79.5,130.5C 79.4431,129.391 79.1098,128.391 78.5,127.5C 79.2389,127.631 79.9056,127.464 80.5,127C 80.7546,122.576 80.4213,118.076 79.5,113.5C 76.1445,113.091 73.1445,113.758 70.5,115.5C 70.33,114.178 70.6634,113.011 71.5,112C 74.4294,111.223 77.2628,111.39 80,112.5C 80.322,110.311 79.822,108.311 78.5,106.5C 78.4346,106.062 78.6012,105.728 79,105.5C 81.6852,106.684 83.8519,108.517 85.5,111C 85.2716,111.399 84.9382,111.565 84.5,111.5 Z"/></g>
<g><path style="opacity:1" fill="#eef1f6" d="M 78.5,127.5 C 75.9339,127.344 73.4339,127.678 71,128.5C 69.9895,128.108 69.4895,127.441 69.5,126.5C 68.549,127.326 67.549,127.492 66.5,127C 66.9646,124.869 66.9646,122.702 66.5,120.5C 66.5,119.833 66.1667,119.5 65.5,119.5C 66.2613,118.609 67.2613,117.942 68.5,117.5C 68.3575,119.382 68.8575,121.382 70,123.5C 70.9517,120.699 71.1184,118.033 70.5,115.5C 73.1445,113.758 76.1445,113.091 79.5,113.5C 80.4213,118.076 80.7546,122.576 80.5,127C 79.9056,127.464 79.2389,127.631 78.5,127.5 Z"/></g>
<g><path style="opacity:1" fill="#6f828e" d="M 190.5,106.5 C 196.638,115.567 200.638,125.567 202.5,136.5C 203.162,140.157 203.829,143.824 204.5,147.5C 204.322,150.737 203.655,153.737 202.5,156.5C 202.5,155.833 202.167,155.5 201.5,155.5C 201.966,150.401 201.966,145.401 201.5,140.5C 201.5,139.5 201.5,138.5 201.5,137.5C 193.5,137.5 185.5,137.5 177.5,137.5C 177.5,144.833 177.5,152.167 177.5,159.5C 180.5,159.5 183.5,159.5 186.5,159.5C 186.557,160.609 186.89,161.609 187.5,162.5C 183.833,162.5 180.167,162.5 176.5,162.5C 176.285,160.477 176.285,158.144 176.5,155.5C 176.5,151.833 176.5,148.167 176.5,144.5C 176.5,141.833 176.5,139.167 176.5,136.5C 178.833,136.5 181.167,136.5 183.5,136.5C 188.5,136.5 193.5,136.5 198.5,136.5C 199.586,136.38 200.253,135.713 200.5,134.5C 199.936,132.181 199.436,129.847 199,127.5C 198.338,123.497 196.505,120.164 193.5,117.5C 193.434,113.522 191.768,110.022 188.5,107C 189.094,106.536 189.761,106.369 190.5,106.5 Z"/></g>
<g><path style="opacity:1" fill="#dbe4ea" d="M 68.5,95.5 C 68.5858,96.4959 68.2524,97.3292 67.5,98C 61.0912,101.009 55.7578,105.175 51.5,110.5C 51.6236,111.107 51.9569,111.44 52.5,111.5C 51.4719,112.074 50.4719,112.407 49.5,112.5C 50.8114,113.258 51.3114,114.258 51,115.5C 50.1072,114.289 49.2739,114.289 48.5,115.5C 49.5217,116.354 50.3551,117.354 51,118.5C 51.8743,116.224 53.5409,114.89 56,114.5C 57.7215,114.611 57.8882,115.111 56.5,116C 58.3817,116.198 60.0484,116.698 61.5,117.5C 59.5,117.5 57.5,117.5 55.5,117.5C 53.7333,116.35 52.5666,117.017 52,119.5C 51.6667,122.167 51.3333,124.833 51,127.5C 49.4126,126.273 48.0793,126.606 47,128.5C 45.4616,123.311 43.9616,123.311 42.5,128.5C 43.6313,129.604 44.4646,129.271 45,127.5C 45.4017,128.872 45.9017,130.205 46.5,131.5C 45.9747,132.192 45.3081,132.692 44.5,133C 46.0368,134.11 46.7035,135.61 46.5,137.5C 44.246,136.876 42.5794,135.543 41.5,133.5C 41.6107,132.883 41.944,132.383 42.5,132C 41.3333,131.5 40.5,130.667 40,129.5C 39.5983,130.872 39.0983,132.205 38.5,133.5C 37.8333,134.833 37.1667,134.833 36.5,133.5C 38.6323,131.605 38.9656,129.438 37.5,127C 39.5504,121.827 41.7171,116.661 44,111.5C 46.0714,110.897 47.2381,109.564 47.5,107.5C 49.0174,107.489 50.1841,106.823 51,105.5C 51.9852,102.415 54.1518,100.915 57.5,101C 60.4333,97.5368 64.0999,95.7034 68.5,95.5 Z"/></g>
<g><path style="opacity:1" fill="#64686e" d="M 55.5,117.5 C 57.5,117.5 59.5,117.5 61.5,117.5C 63.0618,117.733 64.3951,118.4 65.5,119.5C 66.1667,119.5 66.5,119.833 66.5,120.5C 66.44,121.043 66.1067,121.376 65.5,121.5C 62.5754,118.648 59.242,117.982 55.5,119.5C 54.537,119.03 54.537,118.363 55.5,117.5 Z"/></g>
<g><path style="opacity:1" fill="#f0f3f7" d="M 143.5,119.5 C 146.172,121.316 149.005,122.983 152,124.5C 155.104,124.149 154.937,123.649 151.5,123C 154.167,122.333 154.167,121.667 151.5,121C 152.872,120.598 154.205,120.098 155.5,119.5C 156.521,120.901 157.521,122.235 158.5,123.5C 158.56,124.043 158.893,124.376 159.5,124.5C 160.86,123.82 162.193,123.153 163.5,122.5C 165.199,122.34 166.866,122.506 168.5,123C 166.264,123.079 164.93,123.579 164.5,124.5C 164.492,126.543 163.826,128.71 162.5,131C 157.5,131.667 152.5,131.667 147.5,131C 148.167,130.667 148.833,130.333 149.5,130C 145.728,128.611 145.728,127.611 149.5,127C 147.179,124.695 145.179,122.195 143.5,119.5 Z"/></g>
<g><path style="opacity:1" fill="#7b8a90" d="M 48.5,93.5 C 46.1977,96.4115 43.3644,98.7448 40,100.5C 39.4867,101.527 38.9867,102.527 38.5,103.5C 37.5041,103.414 36.6708,103.748 36,104.5C 34.6233,106.754 33.1233,108.92 31.5,111C 32.4506,111.718 32.6172,112.551 32,113.5C 28.0691,117.71 24.9024,122.377 22.5,127.5C 22.1667,127.5 21.8333,127.5 21.5,127.5C 24.106,121.725 26.9393,116.058 30,110.5C 32.4117,106.084 35.5783,102.251 39.5,99C 38.944,98.6174 38.6107,98.1174 38.5,97.5C 40.2161,97.3713 41.8828,97.038 43.5,96.5C 44.922,95.075 46.5887,94.075 48.5,93.5 Z"/></g>
<g><path style="opacity:1" fill="#5d676d" d="M 92.5,118.5 C 94.9496,118.298 97.283,118.631 99.5,119.5C 99.5,120.167 99.1667,120.5 98.5,120.5C 96.3888,119.258 94.3888,119.258 92.5,120.5C 90.9557,120.703 89.6223,121.37 88.5,122.5C 88.1667,122.333 87.8333,122.167 87.5,122C 88.3805,121.292 89.0472,120.458 89.5,119.5C 90.609,119.443 91.609,119.11 92.5,118.5 Z"/></g>
<g><path style="opacity:1" fill="#6d7980" d="M 129.5,119.5 C 131.292,119.366 132.958,119.699 134.5,120.5C 135.833,121.5 137.167,122.5 138.5,123.5C 138.5,123.833 138.5,124.167 138.5,124.5C 137.391,124.443 136.391,124.11 135.5,123.5C 132.778,121.327 129.778,120.994 126.5,122.5C 125.29,122.068 124.29,121.401 123.5,120.5C 125.435,119.85 127.435,119.517 129.5,119.5 Z"/></g>
<g><path style="opacity:1" fill="#bdcfd9" d="M 123.5,120.5 C 124.29,121.401 125.29,122.068 126.5,122.5C 126.918,123.222 127.584,123.722 128.5,124C 127.584,124.374 126.75,124.874 126,125.5C 125.353,131.702 124.52,137.202 123.5,142C 125.478,144.015 127.312,143.848 129,141.5C 131.166,142.731 133.333,143.731 135.5,144.5C 132.5,144.5 129.5,144.5 126.5,144.5C 125.167,144.5 123.833,144.5 122.5,144.5C 121.836,142.133 120.503,140.133 118.5,138.5C 119.309,136.929 119.643,135.262 119.5,133.5C 118.325,133.719 117.325,133.386 116.5,132.5C 117.78,130.298 117.78,128.132 116.5,126C 118.833,125 120.5,123.333 121.5,121C 120.038,119.372 118.372,119.205 116.5,120.5C 116.798,117.735 117.798,115.235 119.5,113C 118.5,112.667 117.5,112.333 116.5,112C 118.66,110.668 120.66,109.168 122.5,107.5C 122.435,107.938 122.601,108.272 123,108.5C 124.154,107.257 125.488,106.257 127,105.5C 127.936,108.352 127.27,110.685 125,112.5C 124.28,114.112 124.446,115.612 125.5,117C 124.177,117.816 123.511,118.983 123.5,120.5 Z"/></g>
<g><path style="opacity:0.325" fill="#a4a0b5" d="M 199.5,101.5 C 199.461,102.583 199.127,103.583 198.5,104.5C 203.709,112.792 206.709,121.792 207.5,131.5C 205.269,121.495 201.269,112.162 195.5,103.5C 196.766,102.638 198.099,101.971 199.5,101.5 Z"/></g>
<g><path style="opacity:1" fill="#686f75" d="M 169.5,121.5 C 167.265,121.205 165.265,121.539 163.5,122.5C 162.193,123.153 160.86,123.82 159.5,124.5C 158.893,124.376 158.56,124.043 158.5,123.5C 161.868,120.593 165.535,119.927 169.5,121.5 Z"/></g>
<g><path style="opacity:1" fill="#dee6ed" d="M 84.5,111.5 C 86.2095,115.446 87.8762,115.446 89.5,111.5C 91.9856,112.462 91.9856,113.295 89.5,114C 90.1383,115.707 90.1383,117.54 89.5,119.5C 89.0472,120.458 88.3805,121.292 87.5,122C 87.8333,122.167 88.1667,122.333 88.5,122.5C 89.6223,121.37 90.9557,120.703 92.5,120.5C 94.4841,120.484 95.4841,121.484 95.5,123.5C 95.3076,127.411 95.141,131.411 95,135.5C 93.6914,137.891 92.6914,137.891 92,135.5C 91.3333,136.833 90.6667,136.833 90,135.5C 90,136.833 90,138.167 90,139.5C 88.8333,138.333 87.6667,137.167 86.5,136C 84.1261,136.402 81.7928,136.236 79.5,135.5C 75.6137,136.588 75.6137,137.421 79.5,138C 78.1667,138.667 76.8333,139.333 75.5,140C 76.4158,140.278 77.0825,140.778 77.5,141.5C 75.5,142.167 73.5,142.833 71.5,143.5C 64.8931,142.625 58.2264,141.625 51.5,140.5C 52.8098,138.852 54.1431,137.186 55.5,135.5C 57.2828,137.679 59.2828,137.679 61.5,135.5C 64.652,135.712 67.9853,135.712 71.5,135.5C 74.5856,134.302 77.2523,132.635 79.5,130.5C 82.5184,130.665 85.5184,130.498 88.5,130C 88.9574,129.586 89.2907,129.086 89.5,128.5C 87.7299,127.18 87.3966,125.68 88.5,124C 87.0394,122.649 85.706,121.149 84.5,119.5C 85.2634,118.281 86.2634,117.281 87.5,116.5C 86.3112,115.571 84.9778,115.238 83.5,115.5C 83.2322,113.901 83.5655,112.568 84.5,111.5 Z"/></g>
<g><path style="opacity:1" fill="#c5d3db" d="M 103.5,113.5 C 105.384,114.382 106.717,115.882 107.5,118C 106.004,118.507 104.837,118.007 104,116.5C 105.932,121.884 107.432,127.551 108.5,133.5C 108.333,134.5 108.167,135.5 108,136.5C 105.162,128.782 104.329,128.782 105.5,136.5C 104.727,138.68 103.727,140.68 102.5,142.5C 100.215,143.546 97.8817,143.546 95.5,142.5C 95.5,140.833 95.5,139.167 95.5,137.5C 97.1033,137.688 98.4366,137.188 99.5,136C 98.713,132.025 98.713,128.192 99.5,124.5C 96.9244,123.117 97.2577,122.283 100.5,122C 99.5842,121.722 98.9175,121.222 98.5,120.5C 99.1667,120.5 99.5,120.167 99.5,119.5C 101.655,120.552 101.988,119.886 100.5,117.5C 101.665,116.416 102.998,115.583 104.5,115C 103.944,114.617 103.611,114.117 103.5,113.5 Z"/></g>
<g><path style="opacity:1" fill="#ccd9e1" d="M 135.5,123.5 C 133.952,123.821 133.285,124.821 133.5,126.5C 132.609,127.261 131.942,128.261 131.5,129.5C 132.511,133.877 133.678,138.21 135,142.5C 135.414,142.043 135.914,141.709 136.5,141.5C 138.801,142.325 141.135,142.992 143.5,143.5C 141.513,144.343 139.346,145.01 137,145.5C 136.235,145.43 135.735,145.097 135.5,144.5C 133.333,143.731 131.166,142.731 129,141.5C 127.312,143.848 125.478,144.015 123.5,142C 124.52,137.202 125.353,131.702 126,125.5C 126.75,124.874 127.584,124.374 128.5,124C 127.584,123.722 126.918,123.222 126.5,122.5C 129.778,120.994 132.778,121.327 135.5,123.5 Z"/></g>
<g><path style="opacity:1" fill="#9ab6c8" d="M 44.5,101.5 C 44.6107,102.117 44.944,102.617 45.5,103C 42.6884,104.977 40.0217,107.144 37.5,109.5C 34.9684,114.588 31.8017,119.255 28,123.5C 27.3333,124.5 27.3333,125.5 28,126.5C 28.9338,123.408 30.1004,123.075 31.5,125.5C 29.2786,128.662 27.9453,132.162 27.5,136C 27.7284,136.399 28.0618,136.565 28.5,136.5C 28.7824,139.347 28.7824,142.013 28.5,144.5C 29.5,145.833 30.5,147.167 31.5,148.5C 28.2638,149.941 25.2638,149.608 22.5,147.5C 23.0402,146.252 23.7069,145.085 24.5,144C 22.5904,143.592 21.5904,142.425 21.5,140.5C 23.4898,136.25 23.8232,131.917 22.5,127.5C 24.9024,122.377 28.0691,117.71 32,113.5C 32.6172,112.551 32.4506,111.718 31.5,111C 33.1233,108.92 34.6233,106.754 36,104.5C 36.6708,103.748 37.5041,103.414 38.5,103.5C 38.4346,103.938 38.6012,104.272 39,104.5C 40.8665,103.473 42.6998,102.473 44.5,101.5 Z"/></g>
<g><path style="opacity:1" fill="#e8edf2" d="M 55.5,117.5 C 54.537,118.363 54.537,119.03 55.5,119.5C 59.242,117.982 62.5754,118.648 65.5,121.5C 66.1067,121.376 66.44,121.043 66.5,120.5C 66.9646,122.702 66.9646,124.869 66.5,127C 67.549,127.492 68.549,127.326 69.5,126.5C 69.4895,127.441 69.9895,128.108 71,128.5C 73.4339,127.678 75.9339,127.344 78.5,127.5C 79.1098,128.391 79.4431,129.391 79.5,130.5C 77.2523,132.635 74.5856,134.302 71.5,135.5C 71.5,134.167 71.5,132.833 71.5,131.5C 67.4454,131.824 63.4454,131.491 59.5,130.5C 60.6405,129.575 60.6405,128.741 59.5,128C 57.567,127.749 55.7337,127.249 54,126.5C 53.5219,129.205 52.6886,131.205 51.5,132.5C 48.0897,132.384 46.7564,134.05 47.5,137.5C 47.1667,137.5 46.8333,137.5 46.5,137.5C 46.7035,135.61 46.0368,134.11 44.5,133C 45.3081,132.692 45.9747,132.192 46.5,131.5C 45.9017,130.205 45.4017,128.872 45,127.5C 44.4646,129.271 43.6313,129.604 42.5,128.5C 43.9616,123.311 45.4616,123.311 47,128.5C 48.0793,126.606 49.4126,126.273 51,127.5C 51.3333,124.833 51.6667,122.167 52,119.5C 52.5666,117.017 53.7333,116.35 55.5,117.5 Z"/></g>
<g><path style="opacity:1" fill="#d2dde4" d="M 92.5,120.5 C 94.3888,119.258 96.3888,119.258 98.5,120.5C 98.9175,121.222 99.5842,121.722 100.5,122C 97.2577,122.283 96.9244,123.117 99.5,124.5C 98.713,128.192 98.713,132.025 99.5,136C 98.4366,137.188 97.1033,137.688 95.5,137.5C 95.5,139.167 95.5,140.833 95.5,142.5C 94.5084,142.328 93.8417,142.662 93.5,143.5C 88.2193,143.53 82.886,142.864 77.5,141.5C 77.0825,140.778 76.4158,140.278 75.5,140C 76.8333,139.333 78.1667,138.667 79.5,138C 75.6137,137.421 75.6137,136.588 79.5,135.5C 81.7928,136.236 84.1261,136.402 86.5,136C 87.6667,137.167 88.8333,138.333 90,139.5C 90,138.167 90,136.833 90,135.5C 90.6667,136.833 91.3333,136.833 92,135.5C 92.6914,137.891 93.6914,137.891 95,135.5C 95.141,131.411 95.3076,127.411 95.5,123.5C 95.4841,121.484 94.4841,120.484 92.5,120.5 Z"/></g>
<g><path style="opacity:1" fill="#bccfdb" d="M 47.5,101.5 C 47.0461,103.741 47.0461,105.741 47.5,107.5C 47.2381,109.564 46.0714,110.897 44,111.5C 41.7171,116.661 39.5504,121.827 37.5,127C 38.9656,129.438 38.6323,131.605 36.5,133.5C 37.1667,134.833 37.8333,134.833 38.5,133.5C 39.0983,132.205 39.5983,130.872 40,129.5C 40.5,130.667 41.3333,131.5 42.5,132C 41.944,132.383 41.6107,132.883 41.5,133.5C 40.6236,133.369 39.9569,133.702 39.5,134.5C 41.1256,135.99 42.7923,137.49 44.5,139C 44.5,140.333 44.5,141.667 44.5,143C 47.4166,143.662 48.7499,145.495 48.5,148.5C 49.552,148.351 50.552,148.517 51.5,149C 49.2088,150.877 47.2088,150.71 45.5,148.5C 44.9347,146.49 43.9347,144.824 42.5,143.5C 41.0815,144.005 40.4148,145.005 40.5,146.5C 38.7844,147.971 36.7844,148.971 34.5,149.5C 34.7989,147.396 34.4656,145.396 33.5,143.5C 32.7492,144.376 32.2492,145.376 32,146.5C 31.2483,143.106 31.4149,139.773 32.5,136.5C 31.1916,135.374 29.8583,135.374 28.5,136.5C 28.0618,136.565 27.7284,136.399 27.5,136C 27.9453,132.162 29.2786,128.662 31.5,125.5C 30.1004,123.075 28.9338,123.408 28,126.5C 27.3333,125.5 27.3333,124.5 28,123.5C 31.8017,119.255 34.9684,114.588 37.5,109.5C 40.0217,107.144 42.6884,104.977 45.5,103C 44.944,102.617 44.6107,102.117 44.5,101.5C 45.5,100.167 46.5,100.167 47.5,101.5 Z"/></g>
<g><path style="opacity:1" fill="#e4e9ef" d="M 135.5,123.5 C 136.391,124.11 137.391,124.443 138.5,124.5C 138.082,125.222 137.416,125.722 136.5,126C 137.167,126.333 137.833,126.667 138.5,127C 137.549,127.718 137.383,128.551 138,129.5C 139.586,130.376 141.086,131.376 142.5,132.5C 145.218,132.055 147.885,132.721 150.5,134.5C 154.058,132.893 157.392,133.227 160.5,135.5C 163.294,132.197 166.294,129.197 169.5,126.5C 169.56,127.043 169.893,127.376 170.5,127.5C 171.739,125.993 171.405,124.826 169.5,124C 170.333,123.833 171.167,123.667 172,123.5C 174.304,123.318 174.804,123.984 173.5,125.5C 174.243,126.182 174.909,126.849 175.5,127.5C 174.292,128.234 172.959,128.567 171.5,128.5C 169.728,131.047 168.895,133.714 169,136.5C 166.936,135.409 164.769,135.242 162.5,136C 164.167,136.333 165.833,136.667 167.5,137C 158.692,137.06 150.192,137.226 142,137.5C 138.505,134.193 135.671,130.526 133.5,126.5C 133.285,124.821 133.952,123.821 135.5,123.5 Z"/></g>
<g><path style="opacity:1" fill="#b4c9d6" d="M 179.5,105.5 C 183.802,109.326 188.135,113.159 192.5,117C 192.167,117.333 191.833,117.667 191.5,118C 194.196,120.463 194.529,122.963 192.5,125.5C 194.94,128.906 196.94,132.573 198.5,136.5C 193.5,136.5 188.5,136.5 183.5,136.5C 184.388,128.722 183.555,121.055 181,113.5C 180.5,112.333 179.667,111.5 178.5,111C 178.957,110.586 179.291,110.086 179.5,109.5C 176.929,108.095 176.929,106.762 179.5,105.5 Z"/></g>
<g><path style="opacity:1" fill="#e4e6e9" d="M 71.5,135.5 C 67.9853,135.712 64.652,135.712 61.5,135.5C 59.2828,137.679 57.2828,137.679 55.5,135.5C 54.1431,137.186 52.8098,138.852 51.5,140.5C 48.6001,141.954 47.2668,140.954 47.5,137.5C 46.7564,134.05 48.0897,132.384 51.5,132.5C 52.6886,131.205 53.5219,129.205 54,126.5C 55.7337,127.249 57.567,127.749 59.5,128C 60.6405,128.741 60.6405,129.575 59.5,130.5C 63.4454,131.491 67.4454,131.824 71.5,131.5C 71.5,132.833 71.5,134.167 71.5,135.5 Z"/></g>
<g><path style="opacity:1" fill="#99b5c3" d="M 104.5,107.5 C 107.106,108.743 107.106,110.076 104.5,111.5C 107.663,114.106 109.83,117.439 111,121.5C 111.333,125.5 111.667,129.5 112,133.5C 112.44,135.076 113.273,136.41 114.5,137.5C 113.215,140.021 112.548,142.687 112.5,145.5C 108.233,145.203 104.066,145.536 100,146.5C 99.8333,146.167 99.6667,145.833 99.5,145.5C 100.908,144.757 102.241,143.923 103.5,143C 103.272,142.601 102.938,142.435 102.5,142.5C 103.727,140.68 104.727,138.68 105.5,136.5C 104.329,128.782 105.162,128.782 108,136.5C 108.167,135.5 108.333,134.5 108.5,133.5C 107.432,127.551 105.932,121.884 104,116.5C 104.837,118.007 106.004,118.507 107.5,118C 106.717,115.882 105.384,114.382 103.5,113.5C 102.627,110.623 100.961,108.29 98.5,106.5C 98.8333,106.167 99.1667,105.833 99.5,105.5C 100.833,106.5 102.167,107.5 103.5,108.5C 104.107,108.376 104.44,108.043 104.5,107.5 Z"/></g>
<g><path style="opacity:0.876" fill="#f5f5f8" d="M 18.5,157.5 C 18.9731,158.906 19.9731,159.573 21.5,159.5C 25.5323,160.766 29.5323,160.766 33.5,159.5C 41.8316,159.702 50.1649,160.035 58.5,160.5C 60.9479,161.473 63.6146,161.806 66.5,161.5C 69.1541,162.821 71.8208,162.821 74.5,161.5C 77.602,164.108 80.602,164.108 83.5,161.5C 85.1667,161.5 86.8333,161.5 88.5,161.5C 88.8913,167.291 91.558,171.624 96.5,174.5C 95.1667,174.833 93.8333,175.167 92.5,175.5C 89.9974,173.167 87.3307,171.001 84.5,169C 63.8266,166.967 43.1599,165.967 22.5,166C 18.0468,165.637 14.8801,163.471 13,159.5C 11.2023,154.311 10.369,148.978 10.5,143.5C 11.095,141.373 12.095,140.207 13.5,140C 12.6705,138.535 12.5038,137.035 13,135.5C 13.6667,138.167 14.3333,138.167 15,135.5C 15.1896,141.416 15.6896,147.249 16.5,153C 16.1667,153.333 15.8333,153.667 15.5,154C 16.8141,154.985 17.8141,156.152 18.5,157.5 Z"/></g>
<g><path style="opacity:1" fill="#dbe4eb" d="M 172.5,139.5 C 172.5,140.5 172.5,141.5 172.5,142.5C 169.482,142.335 166.482,142.502 163.5,143C 162.944,143.383 162.611,143.883 162.5,144.5C 156.258,145.584 149.925,145.25 143.5,143.5C 141.135,142.992 138.801,142.325 136.5,141.5C 135.914,141.709 135.414,142.043 135,142.5C 133.678,138.21 132.511,133.877 131.5,129.5C 131.942,128.261 132.609,127.261 133.5,126.5C 135.671,130.526 138.505,134.193 142,137.5C 150.192,137.226 158.692,137.06 167.5,137C 165.833,136.667 164.167,136.333 162.5,136C 164.769,135.242 166.936,135.409 169,136.5C 168.895,133.714 169.728,131.047 171.5,128.5C 172.959,128.567 174.292,128.234 175.5,127.5C 177.072,125.056 178.572,122.39 180,119.5C 179.333,123.833 179.333,128.167 180,132.5C 178.667,133.833 177.333,133.833 176,132.5C 174.887,133.76 174.72,134.927 175.5,136C 173.574,136.422 172.574,137.589 172.5,139.5 Z"/></g>
<g><path style="opacity:1" fill="#83979f" d="M 21.5,127.5 C 19.7355,135.168 19.4021,142.834 20.5,150.5C 21.8333,150.5 23.1667,150.5 24.5,150.5C 23.1986,151.64 22.0319,152.973 21,154.5C 20.2303,153.402 19.397,153.402 18.5,154.5C 15.3388,144.95 16.3388,135.95 21.5,127.5 Z"/></g>
<g><path style="opacity:1" fill="#a0b9c9" d="M 201.5,140.5 C 199.956,140.703 198.622,141.37 197.5,142.5C 194.851,139.961 192.184,139.961 189.5,142.5C 188.914,142.291 188.414,141.957 188,141.5C 187.009,143.447 186.675,145.447 187,147.5C 187.915,146.672 188.581,145.672 189,144.5C 189.333,145.167 189.667,145.833 190,146.5C 191.02,145.109 191.853,143.609 192.5,142C 193.449,141.383 194.282,141.549 195,142.5C 195.301,145.507 195.135,148.507 194.5,151.5C 192.821,151.285 191.821,151.952 191.5,153.5C 189.528,152.483 188.195,153.15 187.5,155.5C 186.566,156.568 186.232,157.901 186.5,159.5C 183.5,159.5 180.5,159.5 177.5,159.5C 177.5,152.167 177.5,144.833 177.5,137.5C 185.5,137.5 193.5,137.5 201.5,137.5C 201.5,138.5 201.5,139.5 201.5,140.5 Z"/></g>
<g><path style="opacity:1" fill="#788992" d="M 86.5,90.5 C 89.7549,91.7657 92.7549,93.4324 95.5,95.5C 95.8333,96.5 96.5,97.1667 97.5,97.5C 99.2459,99.2516 101.246,100.585 103.5,101.5C 104.948,106.115 107.948,109.282 112.5,111C 109.446,114.222 109.613,117.722 113,121.5C 116.128,118.381 116.628,115.047 114.5,111.5C 118.543,109.457 121.543,106.457 123.5,102.5C 125.404,102.262 126.738,101.262 127.5,99.5C 129.517,98.4706 131.517,97.4706 133.5,96.5C 134.708,95.7659 136.041,95.4326 137.5,95.5C 137.5,95.8333 137.5,96.1667 137.5,96.5C 131.258,98.456 126.258,102.123 122.5,107.5C 120.66,109.168 118.66,110.668 116.5,112C 117.5,112.333 118.5,112.667 119.5,113C 117.798,115.235 116.798,117.735 116.5,120.5C 113.988,122.237 112.988,124.737 113.5,128C 113.423,131.339 114.09,134.505 115.5,137.5C 114.698,140.449 114.364,143.449 114.5,146.5C 113.833,146.5 113.167,146.5 112.5,146.5C 112.5,146.167 112.5,145.833 112.5,145.5C 112.548,142.687 113.215,140.021 114.5,137.5C 113.273,136.41 112.44,135.076 112,133.5C 111.667,129.5 111.333,125.5 111,121.5C 109.83,117.439 107.663,114.106 104.5,111.5C 107.106,110.076 107.106,108.743 104.5,107.5C 103.206,105.093 101.539,102.926 99.5,101C 94.686,97.9483 90.3527,94.4483 86.5,90.5 Z"/></g>
<g><path style="opacity:1" fill="#f3f7f8" d="M 123.5,102.5 C 121.543,106.457 118.543,109.457 114.5,111.5C 116.628,115.047 116.128,118.381 113,121.5C 109.613,117.722 109.446,114.222 112.5,111C 107.948,109.282 104.948,106.115 103.5,101.5C 106.299,99.2622 109.299,97.2622 112.5,95.5C 116.452,97.465 120.119,99.7983 123.5,102.5 Z"/></g>
<g><path style="opacity:1" fill="#6c7f8c" d="M 51.5,140.5 C 58.2264,141.625 64.8931,142.625 71.5,143.5C 69.0521,144.473 66.3854,144.806 63.5,144.5C 59.0983,144.074 55.0983,142.74 51.5,140.5 Z"/></g>
<g><path style="opacity:1" fill="#6e7c85" d="M 77.5,141.5 C 82.886,142.864 88.2193,143.53 93.5,143.5C 94.3167,144.777 92.3167,145.11 87.5,144.5C 84.6872,144.452 82.0205,143.785 79.5,142.5C 77.1162,144.722 74.4495,145.056 71.5,143.5C 73.5,142.833 75.5,142.167 77.5,141.5 Z"/></g>
<g><path style="opacity:1" fill="#b5c8d6" d="M 87.5,144.5 C 87.9371,146.074 88.9371,147.241 90.5,148C 88.9975,150.544 87.1642,152.71 85,154.5C 81.7997,150.168 80.133,150.835 80,156.5C 79.0228,155.226 78.1894,155.226 77.5,156.5C 75.396,156.799 73.396,156.466 71.5,155.5C 68.8074,153.959 66.1407,152.626 63.5,151.5C 63.5,149.167 63.5,146.833 63.5,144.5C 66.3854,144.806 69.0521,144.473 71.5,143.5C 74.4495,145.056 77.1162,144.722 79.5,142.5C 82.0205,143.785 84.6872,144.452 87.5,144.5 Z"/></g>
<g><path style="opacity:1" fill="#778b95" d="M 143.5,143.5 C 149.925,145.25 156.258,145.584 162.5,144.5C 165.518,144.335 168.518,144.502 171.5,145C 167.139,145.673 162.806,146.507 158.5,147.5C 155.803,147.297 153.136,146.964 150.5,146.5C 144.545,145.818 138.545,145.818 132.5,146.5C 130.102,146.741 128.102,146.074 126.5,144.5C 129.5,144.5 132.5,144.5 135.5,144.5C 135.735,145.097 136.235,145.43 137,145.5C 139.346,145.01 141.513,144.343 143.5,143.5 Z"/></g>
<g><path style="opacity:1" fill="#a1b7c2" d="M 93.5,143.5 C 93.8417,142.662 94.5084,142.328 95.5,142.5C 97.8817,143.546 100.215,143.546 102.5,142.5C 102.938,142.435 103.272,142.601 103.5,143C 102.241,143.923 100.908,144.757 99.5,145.5C 99.6667,145.833 99.8333,146.167 100,146.5C 104.066,145.536 108.233,145.203 112.5,145.5C 112.5,145.833 112.5,146.167 112.5,146.5C 108.298,147.293 103.965,148.126 99.5,149C 97.6813,149.74 96.3479,150.907 95.5,152.5C 91.6349,153.706 89.6349,156.373 89.5,160.5C 87.2646,160.205 85.2646,160.539 83.5,161.5C 77.6765,160.418 72.0099,160.418 66.5,161.5C 63.6146,161.806 60.9479,161.473 58.5,160.5C 61.0593,160.802 63.3926,160.468 65.5,159.5C 69.7468,159.077 73.7468,158.077 77.5,156.5C 78.1894,155.226 79.0228,155.226 80,156.5C 80.133,150.835 81.7997,150.168 85,154.5C 87.1642,152.71 88.9975,150.544 90.5,148C 88.9371,147.241 87.9371,146.074 87.5,144.5C 92.3167,145.11 94.3167,144.777 93.5,143.5 Z"/></g>
<g><path style="opacity:1" fill="#9ab5c2" d="M 21.5,127.5 C 21.8333,127.5 22.1667,127.5 22.5,127.5C 23.8232,131.917 23.4898,136.25 21.5,140.5C 21.5904,142.425 22.5904,143.592 24.5,144C 23.7069,145.085 23.0402,146.252 22.5,147.5C 25.2638,149.608 28.2638,149.941 31.5,148.5C 30.5,147.167 29.5,145.833 28.5,144.5C 28.7824,142.013 28.7824,139.347 28.5,136.5C 29.8583,135.374 31.1916,135.374 32.5,136.5C 31.4149,139.773 31.2483,143.106 32,146.5C 32.2492,145.376 32.7492,144.376 33.5,143.5C 34.4656,145.396 34.7989,147.396 34.5,149.5C 36.7844,148.971 38.7844,147.971 40.5,146.5C 41.1499,146.196 41.8165,145.863 42.5,145.5C 45.2466,151.41 49.7466,155.41 56,157.5C 57.8822,156.394 59.7156,156.394 61.5,157.5C 60.7573,158.182 60.0906,158.849 59.5,159.5C 51.1328,158.787 42.7994,158.453 34.5,158.5C 34.7845,156.585 34.4511,154.919 33.5,153.5C 33.3893,152.883 33.056,152.383 32.5,152C 29.7934,151.605 27.1267,151.105 24.5,150.5C 23.1667,150.5 21.8333,150.5 20.5,150.5C 19.4021,142.834 19.7355,135.168 21.5,127.5 Z"/></g>
<g><path style="opacity:1" fill="#b1c7d2" d="M 41.5,133.5 C 42.5794,135.543 44.246,136.876 46.5,137.5C 46.8333,137.5 47.1667,137.5 47.5,137.5C 47.2668,140.954 48.6001,141.954 51.5,140.5C 55.0983,142.74 59.0983,144.074 63.5,144.5C 63.5,146.833 63.5,149.167 63.5,151.5C 66.1407,152.626 68.8074,153.959 71.5,155.5C 73.396,156.466 75.396,156.799 77.5,156.5C 73.7468,158.077 69.7468,159.077 65.5,159.5C 63.5,159.5 61.5,159.5 59.5,159.5C 60.0906,158.849 60.7573,158.182 61.5,157.5C 59.7156,156.394 57.8822,156.394 56,157.5C 49.7466,155.41 45.2466,151.41 42.5,145.5C 41.8165,145.863 41.1499,146.196 40.5,146.5C 40.4148,145.005 41.0815,144.005 42.5,143.5C 43.9347,144.824 44.9347,146.49 45.5,148.5C 47.2088,150.71 49.2088,150.877 51.5,149C 50.552,148.517 49.552,148.351 48.5,148.5C 48.7499,145.495 47.4166,143.662 44.5,143C 44.5,141.667 44.5,140.333 44.5,139C 42.7923,137.49 41.1256,135.99 39.5,134.5C 39.9569,133.702 40.6236,133.369 41.5,133.5 Z"/></g>
<g><path style="opacity:1" fill="#b1c7d3" d="M 150.5,146.5 C 150.082,147.222 149.416,147.722 148.5,148C 150.301,148.317 150.634,148.984 149.5,150C 150.715,152.096 151.549,151.929 152,149.5C 153.342,152.794 155.842,154.128 159.5,153.5C 156.797,154.963 153.797,155.796 150.5,156C 151.706,157.018 151.373,157.518 149.5,157.5C 146.609,156.468 144.109,154.801 142,152.5C 141.722,153.416 141.222,154.082 140.5,154.5C 138.637,152.295 136.303,150.961 133.5,150.5C 133.567,149.041 133.234,147.708 132.5,146.5C 138.545,145.818 144.545,145.818 150.5,146.5 Z"/></g>
<g><path style="opacity:1" fill="#736354" d="M 24.5,150.5 C 27.1267,151.105 29.7934,151.605 32.5,152C 33.056,152.383 33.3893,152.883 33.5,153.5C 31.6398,157.351 29.8065,157.351 28,153.5C 27.5172,154.448 27.3505,155.448 27.5,156.5C 25.8008,156.34 24.1341,156.506 22.5,157C 21.7476,157.671 21.4142,158.504 21.5,159.5C 19.9731,159.573 18.9731,158.906 18.5,157.5C 18.5,156.5 18.5,155.5 18.5,154.5C 19.397,153.402 20.2303,153.402 21,154.5C 22.0319,152.973 23.1986,151.64 24.5,150.5 Z"/></g>
<g><path style="opacity:1" fill="#7f6e5c" d="M 112.5,146.5 C 113.167,146.5 113.833,146.5 114.5,146.5C 121.083,147.248 127.417,149.248 133.5,152.5C 136.266,154.259 138.266,156.593 139.5,159.5C 137.142,156.884 135.809,157.551 135.5,161.5C 134.931,164.335 133.264,166.001 130.5,166.5C 130.865,163.921 130.865,161.588 130.5,159.5C 130.607,157.097 129.607,155.264 127.5,154C 120.512,152.831 113.512,152.164 106.5,152C 104.957,153.878 103.124,155.378 101,156.5C 100.362,157.609 99.8623,158.775 99.5,160C 101.126,161.819 103.126,163.152 105.5,164C 106.823,164.816 107.489,165.983 107.5,167.5C 105.136,166.471 102.803,166.471 100.5,167.5C 98.0476,165.607 95.3809,164.274 92.5,163.5C 91.796,161.322 91.4626,159.322 91.5,157.5C 93.6114,156.395 94.9447,154.729 95.5,152.5C 96.3479,150.907 97.6813,149.74 99.5,149C 103.965,148.126 108.298,147.293 112.5,146.5 Z"/></g>
<g><path style="opacity:1" fill="#b4cad6" d="M 172.5,139.5 C 173.833,141.167 175.167,142.833 176.5,144.5C 176.5,148.167 176.5,151.833 176.5,155.5C 174.801,155.62 173.135,155.954 171.5,156.5C 169.971,156.471 168.804,155.804 168,154.5C 165.62,157.275 162.787,157.942 159.5,156.5C 161.856,155.346 162.023,154.013 160,152.5C 159.601,152.728 159.435,153.062 159.5,153.5C 155.842,154.128 153.342,152.794 152,149.5C 151.549,151.929 150.715,152.096 149.5,150C 150.634,148.984 150.301,148.317 148.5,148C 149.416,147.722 150.082,147.222 150.5,146.5C 153.136,146.964 155.803,147.297 158.5,147.5C 162.806,146.507 167.139,145.673 171.5,145C 168.518,144.502 165.518,144.335 162.5,144.5C 162.611,143.883 162.944,143.383 163.5,143C 166.482,142.502 169.482,142.335 172.5,142.5C 172.5,141.5 172.5,140.5 172.5,139.5 Z"/></g>
<g><path style="opacity:1" fill="#88a6b6" d="M 201.5,140.5 C 201.966,145.401 201.966,150.401 201.5,155.5C 197.997,154.108 194.664,153.441 191.5,153.5C 191.821,151.952 192.821,151.285 194.5,151.5C 195.135,148.507 195.301,145.507 195,142.5C 194.282,141.549 193.449,141.383 192.5,142C 191.853,143.609 191.02,145.109 190,146.5C 189.667,145.833 189.333,145.167 189,144.5C 188.581,145.672 187.915,146.672 187,147.5C 186.675,145.447 187.009,143.447 188,141.5C 188.414,141.957 188.914,142.291 189.5,142.5C 192.184,139.961 194.851,139.961 197.5,142.5C 198.622,141.37 199.956,140.703 201.5,140.5 Z"/></g>
<g><path style="opacity:0.565" fill="#e7eaed" d="M 207.5,131.5 C 210.123,141.415 210.123,151.415 207.5,161.5C 205.5,161.5 203.5,161.5 201.5,161.5C 202.11,160.609 202.443,159.609 202.5,158.5C 202.5,157.833 202.5,157.167 202.5,156.5C 203.655,153.737 204.322,150.737 204.5,147.5C 203.829,143.824 203.162,140.157 202.5,136.5C 204.167,136.5 205.833,136.5 207.5,136.5C 207.5,134.833 207.5,133.167 207.5,131.5 Z"/></g>
<g><path style="opacity:1" fill="#a9b8be" d="M 126.5,144.5 C 128.102,146.074 130.102,146.741 132.5,146.5C 133.234,147.708 133.567,149.041 133.5,150.5C 136.303,150.961 138.637,152.295 140.5,154.5C 140.681,157.784 141.681,160.784 143.5,163.5C 141.57,163.229 140.236,162.229 139.5,160.5C 139.5,160.167 139.5,159.833 139.5,159.5C 138.266,156.593 136.266,154.259 133.5,152.5C 127.417,149.248 121.083,147.248 114.5,146.5C 114.364,143.449 114.698,140.449 115.5,137.5C 114.09,134.505 113.423,131.339 113.5,128C 112.988,124.737 113.988,122.237 116.5,120.5C 118.372,119.205 120.038,119.372 121.5,121C 120.5,123.333 118.833,125 116.5,126C 117.78,128.132 117.78,130.298 116.5,132.5C 117.325,133.386 118.325,133.719 119.5,133.5C 119.643,135.262 119.309,136.929 118.5,138.5C 120.503,140.133 121.836,142.133 122.5,144.5C 123.833,144.5 125.167,144.5 126.5,144.5 Z"/></g>
<g><path style="opacity:1" fill="#696157" d="M 191.5,153.5 C 194.664,153.441 197.997,154.108 201.5,155.5C 202.167,155.5 202.5,155.833 202.5,156.5C 202.5,157.167 202.5,157.833 202.5,158.5C 199.012,159.84 195.845,159.173 193,156.5C 191.832,157.509 190.665,158.509 189.5,159.5C 188.828,158.051 188.161,156.718 187.5,155.5C 188.195,153.15 189.528,152.483 191.5,153.5 Z"/></g>
<g><path style="opacity:1" fill="#a1bbca" d="M 159.5,153.5 C 159.435,153.062 159.601,152.728 160,152.5C 162.023,154.013 161.856,155.346 159.5,156.5C 162.787,157.942 165.62,157.275 168,154.5C 168.804,155.804 169.971,156.471 171.5,156.5C 173.135,155.954 174.801,155.62 176.5,155.5C 176.285,158.144 176.285,160.477 176.5,162.5C 176.158,163.338 175.492,163.672 174.5,163.5C 164.265,162.182 153.931,162.182 143.5,163.5C 141.681,160.784 140.681,157.784 140.5,154.5C 141.222,154.082 141.722,153.416 142,152.5C 144.109,154.801 146.609,156.468 149.5,157.5C 151.373,157.518 151.706,157.018 150.5,156C 153.797,155.796 156.797,154.963 159.5,153.5 Z"/></g>
<g><path style="opacity:1" fill="#42332a" d="M 33.5,153.5 C 34.4511,154.919 34.7845,156.585 34.5,158.5C 33.8333,158.5 33.5,158.833 33.5,159.5C 29.5323,160.766 25.5323,160.766 21.5,159.5C 21.4142,158.504 21.7476,157.671 22.5,157C 24.1341,156.506 25.8008,156.34 27.5,156.5C 27.3505,155.448 27.5172,154.448 28,153.5C 29.8065,157.351 31.6398,157.351 33.5,153.5 Z"/></g>
<g><path style="opacity:1" fill="#67767f" d="M 33.5,159.5 C 33.5,158.833 33.8333,158.5 34.5,158.5C 42.7994,158.453 51.1328,158.787 59.5,159.5C 61.5,159.5 63.5,159.5 65.5,159.5C 63.3926,160.468 61.0593,160.802 58.5,160.5C 50.1649,160.035 41.8316,159.702 33.5,159.5 Z"/></g>
<g><path style="opacity:1" fill="#5e7078" d="M 66.5,161.5 C 72.0099,160.418 77.6765,160.418 83.5,161.5C 80.602,164.108 77.602,164.108 74.5,161.5C 71.8208,162.821 69.1541,162.821 66.5,161.5 Z"/></g>
<g><path style="opacity:1" fill="#3a2c21" d="M 187.5,155.5 C 188.161,156.718 188.828,158.051 189.5,159.5C 190.665,158.509 191.832,157.509 193,156.5C 195.845,159.173 199.012,159.84 202.5,158.5C 202.443,159.609 202.11,160.609 201.5,161.5C 196.897,162.383 192.23,162.717 187.5,162.5C 186.89,161.609 186.557,160.609 186.5,159.5C 186.232,157.901 186.566,156.568 187.5,155.5 Z"/></g>
<g><path style="opacity:1" fill="#5e6d74" d="M 139.5,160.5 C 140.236,162.229 141.57,163.229 143.5,163.5C 153.931,162.182 164.265,162.182 174.5,163.5C 165.154,163.538 155.82,163.871 146.5,164.5C 144.244,165.438 141.91,165.438 139.5,164.5C 139.5,163.167 139.5,161.833 139.5,160.5 Z"/></g>
<g><path style="opacity:1" fill="#ede2df" d="M 130.5,159.5 C 128.241,160.344 127.241,162.011 127.5,164.5C 126.167,164.5 124.833,164.5 123.5,164.5C 123.863,166.911 122.863,168.411 120.5,169C 116.269,169.919 112.269,169.419 108.5,167.5C 108.167,167.5 107.833,167.5 107.5,167.5C 107.489,165.983 106.823,164.816 105.5,164C 103.126,163.152 101.126,161.819 99.5,160C 99.8623,158.775 100.362,157.609 101,156.5C 103.124,155.378 104.957,153.878 106.5,152C 113.512,152.164 120.512,152.831 127.5,154C 129.607,155.264 130.607,157.097 130.5,159.5 Z"/></g>
<g><path style="opacity:1" fill="#c18f95" d="M 115.5,155.5 C 122.714,156.165 123.381,158.665 117.5,163C 115.833,163.667 114.167,163.667 112.5,163C 110.021,162.121 108.021,160.621 106.5,158.5C 106.709,157.914 107.043,157.414 107.5,157C 110.365,156.817 113.031,156.317 115.5,155.5 Z"/></g>
<g><path style="opacity:0.93" fill="#f2f4f7" d="M 201.5,161.5 C 203.5,161.5 205.5,161.5 207.5,161.5C 205.15,165.592 201.483,167.758 196.5,168C 181.542,169.629 166.542,170.463 151.5,170.5C 148.833,169.894 146.166,169.061 143.5,168C 144.025,167.308 144.692,166.808 145.5,166.5C 149.161,167.823 149.494,167.157 146.5,164.5C 155.82,163.871 165.154,163.538 174.5,163.5C 175.492,163.672 176.158,163.338 176.5,162.5C 180.167,162.5 183.833,162.5 187.5,162.5C 192.23,162.717 196.897,162.383 201.5,161.5 Z"/></g>
<g><path style="opacity:1" fill="#403020" d="M 95.5,152.5 C 94.9447,154.729 93.6114,156.395 91.5,157.5C 91.4626,159.322 91.796,161.322 92.5,163.5C 95.3809,164.274 98.0476,165.607 100.5,167.5C 102.803,166.471 105.136,166.471 107.5,167.5C 107.833,167.5 108.167,167.5 108.5,167.5C 108.489,169.017 107.823,170.184 106.5,171C 107.5,171.333 108.5,171.667 109.5,172C 116.183,172.333 122.85,171.999 129.5,171C 132.869,169.294 135.202,166.627 136.5,163C 136.43,162.235 136.097,161.735 135.5,161.5C 135.809,157.551 137.142,156.884 139.5,159.5C 139.5,159.833 139.5,160.167 139.5,160.5C 139.5,161.833 139.5,163.167 139.5,164.5C 138.833,166.5 138.167,168.5 137.5,170.5C 123.628,178.19 109.628,178.356 95.5,171C 92.1151,168.471 89.7818,165.304 88.5,161.5C 86.8333,161.5 85.1667,161.5 83.5,161.5C 85.2646,160.539 87.2646,160.205 89.5,160.5C 89.6349,156.373 91.6349,153.706 95.5,152.5 Z"/></g>
<g><path style="opacity:1" fill="#6b5945" d="M 130.5,159.5 C 130.865,161.588 130.865,163.921 130.5,166.5C 133.264,166.001 134.931,164.335 135.5,161.5C 136.097,161.735 136.43,162.235 136.5,163C 135.202,166.627 132.869,169.294 129.5,171C 122.85,171.999 116.183,172.333 109.5,172C 108.5,171.667 107.5,171.333 106.5,171C 107.823,170.184 108.489,169.017 108.5,167.5C 112.269,169.419 116.269,169.919 120.5,169C 122.863,168.411 123.863,166.911 123.5,164.5C 124.833,164.5 126.167,164.5 127.5,164.5C 127.241,162.011 128.241,160.344 130.5,159.5 Z"/></g>
<g><path style="opacity:0.884" fill="#f1f0f4" d="M 139.5,164.5 C 141.91,165.438 144.244,165.438 146.5,164.5C 149.494,167.157 149.161,167.823 145.5,166.5C 144.692,166.808 144.025,167.308 143.5,168C 146.166,169.061 148.833,169.894 151.5,170.5C 148.68,170.248 146.014,170.748 143.5,172C 141.532,175.806 138.532,178.306 134.5,179.5C 123.58,181.766 112.58,182.099 101.5,180.5C 97.7275,180.116 94.7275,178.45 92.5,175.5C 93.8333,175.167 95.1667,174.833 96.5,174.5C 109.055,179.66 121.722,179.826 134.5,175C 136.141,173.871 137.141,172.371 137.5,170.5C 138.167,168.5 138.833,166.5 139.5,164.5 Z"/></g>
<g><path style="opacity:1" fill="#b3aaa2" d="M 88.5,161.5 C 89.7818,165.304 92.1151,168.471 95.5,171C 109.628,178.356 123.628,178.19 137.5,170.5C 137.141,172.371 136.141,173.871 134.5,175C 121.722,179.826 109.055,179.66 96.5,174.5C 91.558,171.624 88.8913,167.291 88.5,161.5 Z"/></g>
<g><path style="opacity:0.393" fill="#cecedd" d="M 134.5,179.5 C 133.158,180.793 131.491,181.626 129.5,182C 119.884,184.162 110.551,183.662 101.5,180.5C 112.58,182.099 123.58,181.766 134.5,179.5 Z"/></g>
</svg>
